<svg width="1920" height="474" viewBox="0 0 1920 474" fill="none" xmlns="http://www.w3.org/2000/svg">
<rect width="1920" height="803" transform="translate(0 -329)" fill="#040812"/>
<path d="M222.409 81.3619V-34" stroke="#0C1731"/>
<path d="M256.466 81.3619V-34" stroke="#0C1731"/>
<path d="M290.524 81.3619V-34" stroke="#0C1731"/>
<path d="M324.581 81.3619V-34" stroke="#0C1731"/>
<path d="M358.638 81.3619V-34" stroke="#0C1731"/>
<path d="M392.695 81.3619V-34" stroke="#0C1731"/>
<path d="M0 81.3618L835.183 81.3618" stroke="#0C1731"/>
<path d="M0 41.3616L818.886 41.3616" stroke="#0C1731"/>
<rect x="389.02" y="81.3618" width="5.19653" height="5.19653" transform="rotate(-45 389.02 81.3618)" fill="#0C1731"/>
<rect x="389.02" y="41.3613" width="5.19653" height="5.19653" transform="rotate(-45 389.02 41.3613)" fill="#0C1731"/>
<rect x="354.963" y="81.3618" width="5.19653" height="5.19653" transform="rotate(-45 354.963 81.3618)" fill="#0C1731"/>
<rect x="354.963" y="41.3613" width="5.19653" height="5.19653" transform="rotate(-45 354.963 41.3613)" fill="#0C1731"/>
<rect x="320.906" y="81.3618" width="5.19653" height="5.19653" transform="rotate(-45 320.906 81.3618)" fill="#0C1731"/>
<rect x="320.906" y="41.3613" width="5.19653" height="5.19653" transform="rotate(-45 320.906 41.3613)" fill="#0C1731"/>
<rect x="286.849" y="81.3618" width="5.19653" height="5.19653" transform="rotate(-45 286.849 81.3618)" fill="#0C1731"/>
<rect x="286.849" y="41.3613" width="5.19653" height="5.19653" transform="rotate(-45 286.849 41.3613)" fill="#0C1731"/>
<rect x="252.792" y="81.3618" width="5.19653" height="5.19653" transform="rotate(-45 252.792 81.3618)" fill="#0C1731"/>
<rect x="252.792" y="41.3613" width="5.19653" height="5.19653" transform="rotate(-45 252.792 41.3613)" fill="#0C1731"/>
<rect x="218.735" y="81.3618" width="5.19653" height="5.19653" transform="rotate(-45 218.735 81.3618)" fill="#0C1731"/>
<rect x="218.735" y="41.3613" width="5.19653" height="5.19653" transform="rotate(-45 218.735 41.3613)" fill="#0C1731"/>
<g clip-path="url(#clip0_31_295)">
<path d="M1744.22 25.0337C1744.22 25.6087 1743.94 26.1378 1743.53 26.5288L1741.96 27.932L1741.8 30.8073C1741.76 31.6124 1741.25 32.3024 1740.52 32.6015L1737.89 33.7056C1737.66 33.7976 1737.41 33.8666 1737.16 33.8666H1736.4L1736.54 38.4901L1737.13 39.7092L1740.08 41.3654C1740.56 41.6414 1740.91 42.0784 1741.07 42.6075L1741.83 45.2758L1745.53 49.9913L1748.75 53.3956L1751.3 55.0058C1751.58 54.9138 1751.88 54.8678 1752.2 54.8908C1752.89 54.9598 1753.49 55.3509 1753.83 55.9719L1756.32 60.5264L1757.47 61.6765L1760.34 62.4816L1762.78 61.8605L1765.68 59.1693C1766.05 58.8242 1766.53 58.6402 1767.01 58.6172C1767.5 58.6172 1768 58.7552 1768.42 59.0772C1769.04 59.5833 1769.84 60.1354 1770.28 60.3194C1770.95 60.1584 1772.14 59.9053 1773.27 59.6523C1773.43 59.6063 1773.59 59.5833 1773.75 59.5373C1774.12 59.4683 1774.47 59.3763 1774.77 59.3073L1776.77 54.0167C1777.09 53.1886 1777.87 52.6826 1778.7 52.6826C1778.95 52.6826 1779.21 52.7056 1779.44 52.7976L1781.87 53.7177L1785.35 51.1184C1785.6 50.9344 1785.88 50.8194 1786.15 50.7504C1786.45 50.6814 1786.75 50.6814 1787.05 50.7504L1787.95 50.9574L1789.37 49.6463L1789.51 47.415L1788.77 46.2189C1788.41 45.6208 1788.36 44.8847 1788.66 44.2407L1795.4 29.6801L1798.14 21.0542L1798.55 15.3726C1798.62 14.3605 1799.42 13.5325 1800.44 13.4405L1802.85 13.2104C1802.85 13.2104 1802.97 13.2104 1803.01 13.2104C1803.36 13.2104 1803.7 13.2794 1803.98 13.4175C1804.32 13.6015 1804.62 13.8545 1804.83 14.2225L1806.76 17.5119L1807.57 18.0179H1808.76L1809.96 12.2213L1810.37 8.26491C1810.44 7.52883 1810.9 6.90777 1811.55 6.60874C1811.75 6.51673 1812.01 6.44771 1812.24 6.42471L1815.32 6.1257L1815.66 4.56152C1815.76 4.07847 1816.03 3.66442 1816.42 3.36539L1820.15 0.421082L1820.82 -1.25808C1820.82 -1.25808 1820.91 -1.44209 1820.95 -1.5341L1822.98 -4.98446L1823.51 -7.33072L1823.71 -14.3694C1823.71 -15.0595 1824.08 -15.6806 1824.66 -16.0487C1824.8 -16.1407 1824.93 -16.2097 1825.07 -16.2557C1825.56 -16.4397 1826.08 -16.4397 1826.57 -16.2557L1832.71 -13.8404C1832.71 -13.8404 1832.87 -13.7714 1832.94 -13.7254L1838.02 -10.9651L1838.48 -13.7944L1837.7 -14.7835L1835.35 -16.9457L1831.67 -18.7859C1831.67 -18.7859 1831.51 -18.8779 1831.42 -18.924L1829.97 -19.913L1828.78 -19.591L1826.36 -17.8428L1822.96 -15.0595C1822.66 -14.8065 1822.27 -14.6455 1821.87 -14.5995L1817.92 -14.1624C1817.53 -14.1164 1817.11 -14.1854 1816.75 -14.3694L1816.61 -14.4385L1816.35 -14.0704L1815.23 -12.4373C1815.23 -12.4373 1815.07 -12.2302 1814.97 -12.1382L1813 -10.16C1812.63 -9.79197 1812.17 -9.58496 1811.66 -9.56195L1809.34 -9.40092L1806.85 -6.0196L1803.36 -2.06318C1802.81 -1.51112 1802 -1.3041 1801.24 -1.55713C1800.51 -1.78715 1799.95 -2.4312 1799.82 -3.19028L1798.5 -10.8731L1798.39 -11.4251L1797.45 -15.6346L1782.47 -13.7714L1776.26 -12.7593C1776.26 -12.7593 1776.26 -12.7593 1776.24 -12.7593C1776.12 -12.7593 1776.03 -12.7363 1775.94 -12.7363C1775.85 -12.7363 1775.78 -12.7593 1775.71 -12.7823C1775.57 -12.7823 1775.46 -12.8053 1775.34 -12.8513C1775.23 -12.8973 1775.11 -12.9433 1775 -13.0123C1774.88 -13.0583 1774.79 -13.1043 1774.7 -13.1733C1774.56 -13.2654 1774.47 -13.4033 1774.35 -13.5414C1774.31 -13.6104 1774.24 -13.6564 1774.19 -13.7254C1774.05 -13.9324 1773.96 -14.1854 1773.91 -14.4385L1771.71 -26.3767L1771.13 -20.4651L1770.69 -12.8743C1770.69 -12.5523 1770.58 -12.2302 1770.42 -11.9312L1767.36 -6.66366C1767.29 -6.54865 1767.2 -6.43362 1767.11 -6.31861L1762.94 -1.71813C1762.94 -1.71813 1762.74 -1.51113 1762.62 -1.41912L1759.56 0.766139C1759.08 1.11118 1758.46 1.22617 1757.88 1.11116L1756.25 0.743114L1755.42 1.68622L1751.46 7.45981V9.43802L1752.68 11.3472C1753.01 11.8533 1753.1 12.4973 1752.91 13.0724L1752.25 15.2576C1752.09 15.7867 1751.72 16.2237 1751.26 16.4998L1748.84 17.8109C1748.29 18.1099 1747.62 18.156 1747.02 17.9029C1746.73 17.7879 1746.47 17.5809 1746.27 17.3509C1746.06 17.1208 1745.9 16.8448 1745.83 16.5228L1745.37 14.7976L1744.45 18.455L1744.24 25.0337H1744.22Z" fill="#070D1D"/>
<path d="M1792.91 247.881L1795.97 234.287C1795.97 234.287 1796.02 234.149 1796.04 234.057L1797.84 228.881L1797.29 225.914C1797.19 225.431 1797.29 224.902 1797.54 224.488L1801.7 217.311C1801.7 217.311 1801.66 217.311 1801.63 217.311C1801.59 217.311 1801.56 217.311 1801.52 217.311C1801.47 217.311 1801.45 217.288 1801.4 217.288C1801.13 217.288 1800.87 217.219 1800.62 217.104C1800.62 217.104 1800.6 217.104 1800.57 217.104L1797.08 215.356C1796.57 215.103 1796.18 214.643 1796.02 214.114L1795.15 211.261L1793.6 207.006L1791.3 204.867L1788.31 204.108C1787.62 203.947 1787.07 203.418 1786.84 202.75L1784.68 196.287L1781.32 188.972L1776.33 186.672C1776.12 186.58 1775.94 186.465 1775.78 186.304L1772.93 183.681C1772.74 183.52 1772.58 183.313 1772.47 183.083L1770.88 179.909L1768.49 177.701L1765.63 176.068C1765.4 175.93 1765.2 175.746 1765.01 175.539L1762.11 171.812L1758.41 169.075L1752.52 166.775C1751.95 166.545 1751.51 166.085 1751.3 165.487L1750.77 163.876L1747.74 160.242C1747.58 160.035 1747.44 159.805 1747.37 159.575L1746.79 157.85L1743 152.053L1739.6 152.214C1739.18 152.237 1738.77 152.122 1738.42 151.915L1732.95 148.626C1732.81 148.534 1732.67 148.442 1732.56 148.304L1730.81 146.556C1730.51 146.257 1730.3 145.865 1730.23 145.451L1729.8 143.036C1729.75 142.829 1729.75 142.645 1729.8 142.438C1729.8 142.231 1729.87 142.047 1729.93 141.863L1731.04 139.241C1731.11 139.08 1731.2 138.919 1731.29 138.781L1725.84 139.701L1716.32 140.805L1707.16 141.472L1700.65 142.553L1689.2 144.094L1679.44 145.221L1679.37 146.188L1679.49 147.683L1679.58 148.764L1680.39 153.042L1684.9 163.577C1684.9 163.577 1684.99 163.784 1685.01 163.899L1690.28 185.614L1692.42 192.008C1692.42 192.008 1692.46 192.169 1692.49 192.238L1694.44 201.554L1697.13 209.674L1700.42 213.999C1700.63 214.275 1700.77 214.62 1700.84 214.965L1701.32 218.392L1702.86 219.036C1703.57 219.335 1704.08 220.025 1704.15 220.807L1704.38 223.66C1704.38 223.959 1704.38 224.258 1704.26 224.534L1702.68 228.881L1701.94 230.905L1701.32 235.069L1701.16 237.093L1703.18 242.568C1703.25 242.752 1703.3 242.959 1703.3 243.166L1703.73 250.388C1703.73 250.664 1703.73 250.917 1703.64 251.171L1702.93 253.333L1704.42 254.161C1704.42 254.161 1704.61 254.345 1704.72 254.414C1704.86 254.529 1705 254.621 1705.09 254.736C1705.18 254.851 1705.21 254.989 1705.28 255.104C1705.34 255.242 1705.44 255.357 1705.46 255.495V255.564V255.61L1706.49 260.095L1708.77 263.523L1709.42 264.489L1710.66 265.731L1720.55 265.938L1764.23 263.316L1771.48 262.419C1771.48 262.419 1771.66 262.419 1771.75 262.419L1777.96 262.465C1778.7 262.465 1779.37 262.856 1779.73 263.454C1779.85 263.661 1779.94 263.868 1779.99 264.098V263.937L1777.96 258.209C1777.73 257.565 1777.83 256.875 1778.22 256.323L1779.76 254.138C1780.19 253.494 1780.98 253.149 1781.76 253.264L1783.39 253.494L1789.65 254.368L1791.44 254.483L1793.74 254.621L1793.01 248.571C1792.98 248.341 1793.01 248.088 1793.05 247.858L1792.91 247.881Z" fill="#070D1D"/>
<path d="M1627.18 -54.9457C1627.18 -54.9457 1627.14 -54.9457 1627.11 -54.9457H1627.07L1623.92 -53.1515L1621.25 -50.6903C1621.02 -50.4603 1620.72 -50.2992 1620.4 -50.2072L1618.86 -49.7702C1618.28 -49.6092 1617.64 -49.7012 1617.13 -50.0462L1615.43 -51.1733L1614.65 -51.4034L1615.54 -38.545L1619.04 3.96344L1619.71 13.4174C1619.71 13.5785 1619.71 13.7165 1619.71 13.8775L1618.65 21.0772L1619.02 24.7116L1621.16 28.0239C1621.34 28.323 1621.45 28.645 1621.48 28.99L1622.14 36.8799C1622.19 37.3169 1622.08 37.777 1621.85 38.145L1618.4 43.7346L1616.03 48.8871C1615.96 49.0252 1615.87 49.1632 1615.77 49.3012L1613.06 52.7746L1612.48 58.1571L1612.55 59.6753L1613.54 59.1232C1613.75 59.0082 1613.98 58.9162 1614.23 58.8702L1622.12 57.559L1627 56.892C1627.76 56.777 1628.49 57.099 1628.95 57.6971L1630.77 59.9743L1632.24 57.283C1632.33 57.099 1632.47 56.938 1632.63 56.777C1632.79 56.6389 1632.96 56.5009 1633.14 56.4089L1637.1 54.4307C1637.83 54.0627 1638.73 54.1547 1639.37 54.6837L1642 56.869C1642.13 56.984 1642.25 57.122 1642.36 57.26L1642.43 57.352L1642.32 54.8677C1642.29 54.2697 1642.52 53.6946 1642.92 53.3036C1643.05 53.1656 1643.21 53.0506 1643.38 52.9585L1647.22 50.8193L1648.67 49.7842C1649.13 49.4622 1649.68 49.3242 1650.23 49.4162C1650.78 49.5082 1651.27 49.8302 1651.59 50.2673L1652.51 51.5784H1656.35L1656.74 50.5663L1656.37 48.036C1656.28 47.461 1656.44 46.8629 1656.83 46.4259L1660.79 41.5954C1660.79 41.5954 1660.97 41.3883 1661.06 41.3193L1662.58 40.0772L1666.77 36.6039L1667.34 31.3133C1667.39 30.8303 1667.62 30.3932 1667.94 30.0712C1668.26 29.7491 1668.7 29.5191 1669.18 29.4731L1672.59 29.0821L1677.37 26.8968L1679.86 25.1257L1679.74 24.4356L1678.25 22.9404C1677.99 22.6874 1677.81 22.3653 1677.72 22.0203C1677.72 22.0203 1677.72 21.9743 1677.72 21.9513C1677.67 21.8133 1677.65 21.6523 1677.65 21.4913C1677.65 21.4453 1677.65 21.3993 1677.65 21.3533C1677.65 21.2382 1677.65 21.1232 1677.67 21.0082L1678.27 18.2479L1677.65 11.0482V10.9332L1674.13 -20.8331L1671.71 -39.4191V-39.5571L1669.78 -58.8792L1633.65 -55.1528L1627.23 -54.9227L1627.18 -54.9457Z" fill="#070D1D"/>
<path d="M1716.22 30.3011L1714.96 28.875L1712.29 28.4609L1709.65 30.0481C1709.28 30.2781 1708.84 30.3702 1708.4 30.3472L1705.55 30.1401C1705.05 30.0941 1704.59 29.8871 1704.24 29.5421L1702.4 27.7019L1695.29 27.3108C1694.46 27.2648 1693.75 26.7358 1693.45 25.9537L1691.52 20.7551L1689.06 19.375L1686.64 20.1801C1686.46 20.2491 1686.3 20.2721 1686.11 20.2721L1682.04 20.5021L1681.95 20.8242L1683.08 21.9513C1683.38 22.2503 1683.58 22.6643 1683.65 23.0784L1684.09 25.7007C1684.18 26.2987 1684.02 26.8968 1683.65 27.3568C1683.54 27.5179 1683.38 27.6559 1683.22 27.7709L1679.49 30.3931C1679.49 30.3931 1679.28 30.5312 1679.14 30.5772L1673.88 32.9924C1673.67 33.0844 1673.46 33.1534 1673.26 33.1764L1671.19 33.4295L1670.7 37.9149C1670.63 38.467 1670.38 38.9501 1669.97 39.2951L1666.77 41.9404L1663.78 44.4246L1660.54 48.381L1660.83 50.5433C1660.88 50.8883 1660.83 51.2563 1660.72 51.5784L1659.62 54.4307C1659.55 54.6377 1659.43 54.8217 1659.29 54.9827C1658.9 55.4658 1658.3 55.7648 1657.66 55.7648H1651.31C1650.62 55.7648 1650 55.4428 1649.61 54.8677L1649.29 54.3847L1646.48 55.9488L1646.64 59.2612C1646.69 60.0202 1646.3 60.7103 1645.7 61.1014C1645.49 61.2394 1645.26 61.3314 1645.03 61.4004L1642.18 62.0675C1642.04 62.0905 1641.93 62.0905 1641.79 62.0905C1641.51 62.0905 1641.24 62.0905 1640.98 61.9755C1640.62 61.8375 1640.27 61.5844 1640.02 61.2394L1639.07 59.9283L1637.69 58.7781L1635.56 59.8592L1633.46 63.6776C1633.32 63.9076 1633.16 64.1147 1632.96 64.2757C1632.36 64.7588 1631.51 64.8968 1630.77 64.5747L1628.36 63.4706C1628.03 63.3326 1627.76 63.1026 1627.55 62.8265L1626.31 61.1704L1622.7 61.6534L1615.27 62.8956L1612.16 64.8048L1611.03 68.3241C1610.99 68.4851 1610.9 68.6232 1610.83 68.7612C1610.8 68.8072 1610.78 68.8532 1610.76 68.8992C1610.62 69.0832 1610.46 69.2442 1610.28 69.3822L1610 69.5893L1610.34 70.6474L1611.4 72.9476C1611.52 73.2006 1611.59 73.4997 1611.59 73.7757C1611.59 74.0517 1611.54 74.3277 1611.45 74.6038C1611.24 75.1328 1610.8 75.5469 1610.3 75.7539L1608.11 76.628C1608.11 76.628 1607.93 76.697 1607.84 76.72L1604.73 77.5021L1603.12 78.6982L1602.89 80.2394L1604.32 82.9307C1604.5 83.2757 1604.59 83.6667 1604.55 84.0578L1604.32 87.1171C1604.25 87.9912 1603.65 88.7272 1602.8 88.9803L1601.26 89.4173C1600.84 89.5323 1600.38 89.5323 1599.97 89.3713L1595.14 87.6231L1591.97 86.151L1590.26 86.68L1588.03 88.4282L1587.69 89.6704L1589.11 92.2006C1589.11 92.2006 1589.16 92.3156 1589.18 92.3847C1589.23 92.4767 1589.27 92.5456 1589.3 92.6376C1589.3 92.7067 1589.32 92.7987 1589.34 92.8677C1589.34 92.9597 1589.39 93.0517 1589.39 93.1437C1589.39 93.2357 1589.39 93.3277 1589.39 93.3967C1589.39 93.4887 1589.39 93.5577 1589.37 93.6498C1589.34 93.7648 1589.3 93.9028 1589.23 94.0178C1589.23 94.0638 1589.23 94.1098 1589.18 94.1328L1588.12 96.249L1587.85 100.182C1587.83 100.505 1587.71 100.804 1587.55 101.08C1587.37 101.402 1587.11 101.678 1586.77 101.862L1584.31 103.242L1584.21 103.357L1592.54 103.311H1592.75L1602.02 102.437L1611.52 101.885V98.5953C1611.52 98.0432 1611.75 97.5142 1612.14 97.1231C1612.53 96.7321 1613.06 96.5251 1613.61 96.5251L1618.74 96.5711L1646.25 93.4888L1647.29 93.3967L1716.27 86.726L1719.15 85.2999L1719.35 85.1849L1726.94 80.6304L1731.2 78.3302V76.72C1731.2 76.1679 1731.43 75.6389 1731.82 75.2478L1734.24 72.8326L1740.26 65.7248C1740.26 65.7248 1740.42 65.5638 1740.52 65.4718L1746.13 60.7333L1748.29 58.134L1746.43 56.8689L1746.24 56.7539C1746.1 56.6619 1745.97 56.5469 1745.83 56.4319L1742.33 52.7055L1738.26 47.53C1738.1 47.3229 1737.96 47.0699 1737.89 46.8169L1737.25 44.5626L1734.49 43.0215C1734.12 42.8145 1733.82 42.5154 1733.64 42.1474L1732.53 39.9621C1732.4 39.7091 1732.33 39.4101 1732.33 39.1341L1732.05 33.0614L1728.85 30.8992L1726.23 29.4041L1725.98 29.266C1725.45 28.99 1725.08 28.4839 1724.94 27.9089L1724.46 25.8847L1722.83 27.0808L1719.19 30.5082C1719.19 30.5082 1718.96 30.6462 1718.87 30.7152C1718.75 30.7842 1718.64 30.8992 1718.5 30.9452C1718.25 31.0372 1717.97 31.0832 1717.67 31.0832C1717.12 31.0602 1716.59 30.8072 1716.2 30.3931L1716.22 30.3011Z" fill="#070D1D"/>
<path d="M1456.64 131.627C1456.64 131.627 1456.64 131.443 1456.64 131.374V120.448L1454.53 111.385C1454.5 111.293 1454.48 111.178 1454.48 111.086L1453.86 101.793L1453.7 98.5033L1453.65 97.9513L1437.76 98.7794L1374.71 98.1583L1313.57 95.375L1281.66 93.7188C1281.48 93.7648 1281.29 93.8338 1281.11 93.8338C1281.06 93.8338 1281.02 93.8338 1280.97 93.8338C1280.67 93.8338 1280.4 93.7418 1280.14 93.6038L1266.18 92.9137H1266.14L1259.86 92.4307L1259.63 97.3302V104.116L1286.79 105.473L1328.93 107.014C1329.49 107.014 1330.01 107.29 1330.41 107.704C1330.77 108.118 1330.98 108.67 1330.93 109.222L1329.07 141.472L1328.45 165.417L1328.61 166.636L1333.74 170.961L1334.84 171.582L1335.21 170.478C1335.47 169.742 1336.09 169.213 1336.87 169.075C1337.63 168.937 1338.41 169.259 1338.87 169.88L1339.84 171.191C1339.97 170.708 1340.3 170.271 1340.76 169.995C1341.38 169.604 1342.14 169.581 1342.78 169.903L1346.51 171.766C1347.29 172.157 1347.75 173.008 1347.66 173.882L1347.29 176.942L1350.65 177.126C1350.9 177.126 1351.15 177.195 1351.41 177.31L1354.56 178.736L1359.87 179.61C1360.19 179.656 1360.49 179.794 1360.77 179.978L1362.82 181.473L1364.66 179.817C1365.14 179.38 1365.83 179.196 1366.47 179.311L1371.12 180.231C1371.63 180.323 1372.09 180.622 1372.38 181.036L1375.17 184.831H1375.35C1376.5 184.831 1377.45 185.774 1377.45 186.925V188.466L1377.86 188.581L1380.07 186.372C1380.64 185.797 1381.52 185.613 1382.28 185.889L1382.94 186.142L1384.39 186.695H1387.43C1388.3 186.695 1389.08 187.247 1389.38 188.075L1390.3 190.582L1395.06 192.399L1395.43 192.215L1397.62 187.316C1397.96 186.557 1398.7 186.073 1399.53 186.073H1401.07C1401.83 186.073 1402.52 186.488 1402.89 187.155L1403.94 189.064L1408.52 189.823C1408.66 189.823 1408.77 189.869 1408.91 189.938L1413.88 191.801L1416.99 192.767L1417.88 192.307L1418.57 189.8C1418.83 188.88 1419.65 188.259 1420.6 188.259H1426.49C1426.79 188.259 1427.06 188.328 1427.34 188.443L1429.02 189.179L1431.75 187.132C1432.12 186.856 1432.56 186.718 1433 186.718H1434.54C1435.37 186.718 1436.12 187.224 1436.45 187.983L1436.84 188.88H1440.01L1441.55 186.902C1442.06 186.258 1442.91 185.958 1443.72 186.165L1446.2 186.787C1446.64 186.902 1447.03 187.132 1447.3 187.5L1449.86 190.605L1453.65 192.767L1457.75 193.94C1457.84 193.963 1457.93 194.009 1458.05 194.055L1458.78 194.4L1458.51 146.486L1456.67 131.719L1456.64 131.627Z" fill="#070D1D"/>
<path d="M1786.89 364.043C1786.89 364.043 1787.05 364.273 1787.12 364.388L1790.98 371.496L1794.85 376.649C1794.94 376.787 1795.03 376.925 1795.1 377.086L1797.56 382.836L1798.99 380.996C1799.65 380.145 1800.85 379.938 1801.77 380.513L1804.19 382.054C1804.44 382.215 1804.67 382.422 1804.83 382.698L1808.33 388.173C1808.46 388.403 1808.58 388.656 1808.63 388.932L1809.43 393.302L1811.66 396.5C1812.03 396.293 1812.44 396.178 1812.88 396.224L1818.15 396.661C1818.49 396.684 1818.82 396.799 1819.09 396.983L1823.92 400.042C1824.17 400.203 1824.38 400.41 1824.54 400.663L1829.14 407.679C1829.28 407.886 1829.37 408.116 1829.42 408.346L1830.52 412.946C1830.52 412.946 1830.55 413.108 1830.57 413.2L1830.91 416.328L1831.54 416.857L1832.18 417.11L1834.27 416.282L1835.93 414.442C1836.3 414.028 1836.83 413.775 1837.4 413.752L1842.23 413.545L1845.61 411.934L1848.35 408.714L1847.96 407.127C1847.96 407.127 1847.94 406.966 1847.91 406.897L1847.48 403.607C1847.43 403.285 1847.48 402.963 1847.57 402.664L1848.28 400.525L1847.94 398.409C1847.8 397.535 1848.21 396.638 1849.02 396.224L1851.32 395.005L1851.59 391.991L1850.88 390.013C1850.81 389.806 1850.77 389.599 1850.77 389.392L1850.12 373.313L1848.44 363.491L1842.48 352.611L1837.7 344.813L1834.25 337.729L1830.55 334.025C1830.34 333.818 1830.18 333.588 1830.09 333.312L1826.13 323.237C1825.9 322.616 1825.95 321.926 1826.31 321.374L1827.42 319.626C1827.42 319.626 1827.53 319.442 1827.63 319.35L1828.2 318.706L1826.89 316.336L1821.67 311.529C1821.67 311.529 1821.55 311.437 1821.51 311.368L1814.93 303.915C1814.93 303.915 1814.77 303.708 1814.7 303.593L1809.66 295.036L1802.41 282.293C1802.41 282.293 1802.32 282.109 1802.28 282.017L1797.22 268.813C1797.22 268.813 1797.17 268.652 1797.15 268.583L1794.69 258.945L1790.48 258.669L1789.19 258.6L1783.58 257.818L1782.4 257.657L1782.22 257.933L1784.06 263.063C1784.15 263.339 1784.2 263.638 1784.17 263.914L1783.74 269.825C1783.69 270.47 1783.35 271.045 1782.84 271.39C1782.61 271.551 1782.36 271.643 1782.08 271.689C1782.01 271.689 1781.94 271.712 1781.87 271.712C1781.8 271.712 1781.74 271.735 1781.67 271.735C1781.46 271.735 1781.28 271.712 1781.07 271.643L1777.57 270.539C1777.16 270.401 1776.81 270.147 1776.54 269.825C1776.28 269.503 1776.12 269.089 1776.1 268.652L1775.98 266.674H1771.87L1764.62 267.548L1720.64 270.193L1709.74 269.986C1709.21 269.986 1708.68 269.756 1708.31 269.365L1706.33 267.387C1706.33 267.387 1706.15 267.18 1706.08 267.065L1705.32 265.938L1703.34 262.948H1695.98L1692.65 263.27L1686.97 263.822L1652.37 267.755L1640.22 269.296L1640.06 270.815L1641.67 272.425L1645.06 274.978C1645.06 274.978 1645.15 275.116 1645.22 275.162C1645.38 275.323 1645.54 275.461 1645.63 275.645C1645.68 275.737 1645.7 275.852 1645.72 275.967C1645.79 276.128 1645.86 276.289 1645.88 276.473L1646.5 285.007L1648.3 284.685L1656.26 281.902C1656.42 281.833 1656.6 281.81 1656.79 281.787L1664.91 281.12L1670.68 280.269C1670.93 280.223 1671.21 280.246 1671.46 280.292L1681.77 282.707C1681.9 282.753 1682.07 282.799 1682.2 282.868L1693.18 288.135C1693.36 288.227 1693.52 288.342 1693.66 288.457L1695.55 290.16L1699.13 291.563C1699.46 291.678 1699.75 291.908 1699.98 292.161L1702.17 294.783C1702.42 295.105 1702.58 295.473 1702.63 295.864L1702.75 296.876L1704.61 296.14C1704.86 296.048 1705.11 296.002 1705.39 296.002H1710.13L1714.25 293.748L1719.08 289.125C1719.49 288.733 1720.07 288.503 1720.64 288.549L1722.27 288.641C1722.18 288.388 1722.16 288.112 1722.18 287.836L1722.39 285.214C1722.46 284.294 1723.15 283.512 1724.07 283.351L1729.54 282.247C1729.68 282.224 1729.82 282.201 1729.96 282.201H1733.45C1733.78 282.201 1734.1 282.27 1734.4 282.431L1738.21 284.34L1743.78 286.272C1744.22 286.433 1744.59 286.709 1744.84 287.1L1747.74 291.54L1750.8 292.621C1751.4 292.828 1751.88 293.311 1752.09 293.932L1753.33 297.704L1757.12 299.522C1757.49 299.683 1757.79 299.959 1758 300.304L1759.79 303.179L1761.7 303.823L1768.56 305.525C1769.2 305.686 1769.73 306.123 1769.98 306.744L1771.61 310.632L1775.59 315.439C1775.89 315.807 1776.08 316.29 1776.08 316.773V329.701C1776.08 329.908 1776.05 330.115 1775.98 330.322L1774.14 336.256L1774.51 339.385L1774.93 340.926C1774.93 340.926 1774.95 340.926 1774.97 340.926L1777.16 340.052C1777.55 339.891 1777.96 339.868 1778.38 339.96L1784.52 341.271C1785.42 341.455 1786.06 342.191 1786.15 343.111L1786.38 345.296C1786.43 345.733 1786.34 346.17 1786.11 346.562L1781.71 354.014C1781.71 354.014 1781.57 354.221 1781.48 354.313L1779.87 356.177L1783.39 359.834L1786.98 364.089L1786.89 364.043Z" fill="#070D1D"/>
<path d="M1637.67 287.813L1641.88 286.157L1641.63 277.692L1638.91 275.668C1638.91 275.668 1638.75 275.553 1638.68 275.484L1636.27 273.069C1635.83 272.632 1635.6 272.011 1635.67 271.366L1636.11 267.203C1636.2 266.237 1636.96 265.478 1637.92 265.34L1651.73 263.592L1686.39 259.635L1695.64 258.761L1701.66 258.6L1701.43 257.381L1700.31 256.76C1700.08 256.622 1699.87 256.461 1699.69 256.231L1698.81 255.127C1698.37 254.575 1698.24 253.839 1698.47 253.172L1698.95 251.722L1699.43 250.273L1699.04 243.741L1696.95 238.105C1696.83 237.829 1696.81 237.507 1696.83 237.208L1697.06 234.586L1697.73 230.077C1697.73 229.939 1697.78 229.801 1697.85 229.663L1700.1 223.521L1700.01 222.394L1698.56 221.796C1697.89 221.52 1697.41 220.899 1697.29 220.163L1696.72 216.092L1693.54 211.928C1693.41 211.744 1693.29 211.537 1693.22 211.33L1690.37 202.773C1690.37 202.773 1690.32 202.612 1690.3 202.543L1688.35 193.227L1686.18 186.764L1686.11 186.465L1681.08 165.693L1680.92 165.072L1676.38 154.491C1676.32 154.353 1676.27 154.215 1676.25 154.054L1675.37 149.454C1675.37 149.454 1675.35 149.293 1675.35 149.224L1675.12 146.371C1675.12 146.371 1675.12 146.164 1675.12 146.072V146.026V145.635L1663.78 146.532L1626.1 150.029L1617.43 150.558L1617.27 157.182L1617.5 179.725L1616.39 221.888L1616.19 240.773L1619.89 266.053L1621.89 284.869H1623.39L1624.42 282.684L1626.35 276.887C1626.65 276.013 1627.46 275.461 1628.33 275.461C1628.52 275.461 1628.72 275.484 1628.91 275.53L1631.97 276.404C1632.52 276.565 1632.98 276.933 1633.26 277.462L1637.42 285.582C1637.58 285.881 1637.65 286.203 1637.65 286.525V287.836L1637.67 287.813Z" fill="#070D1D"/>
<path d="M1586.42 320.017C1588.03 320.224 1590.4 320.661 1591.25 320.822C1591.44 320.845 1591.6 320.914 1591.76 320.983L1597.23 323.605C1597.58 323.766 1597.85 324.019 1598.06 324.318L1598.75 325.353H1601.58C1601.99 325.353 1602.41 325.491 1602.75 325.721L1603.63 324.548C1603.44 324.479 1603.28 324.364 1603.12 324.249L1598.96 320.891L1591.64 319.879C1591.32 319.833 1591 319.718 1590.72 319.534L1586.33 316.474C1585.52 315.922 1585.23 314.864 1585.59 313.967L1587.14 310.241C1587.3 309.873 1587.55 309.551 1587.85 309.344V309.298V308.63C1587.85 307.825 1588.31 307.112 1589 306.767C1588.88 306.767 1588.75 306.767 1588.63 306.721L1584.47 305.847C1583.87 305.732 1583.36 305.341 1583.06 304.812L1581.75 302.397C1581.32 301.615 1581.45 300.649 1582.05 299.982L1584.47 297.359C1584.47 297.359 1584.56 297.244 1584.63 297.198L1587.16 294.967L1586.33 293.15C1586.33 293.15 1586.26 292.966 1586.24 292.874L1584.86 288.158L1580.63 284.202C1580.12 283.742 1579.89 283.052 1579.98 282.362L1581.34 273.483L1580.46 273.598L1569.22 274.541L1536.23 275.484C1535.31 275.484 1534.44 274.886 1534.16 273.966L1533.54 271.804C1533.47 271.551 1533.45 271.298 1533.47 271.045L1534.39 260.187C1534.41 259.888 1534.51 259.612 1534.64 259.359L1539.29 250.986L1545.91 239.485L1545.11 237.668C1544.97 237.346 1544.9 237.001 1544.93 236.656C1544.95 236.311 1545.06 235.989 1545.25 235.69C1545.62 235.138 1546.21 234.793 1546.86 234.747L1547.16 233.321L1545.06 231.641C1544.65 231.296 1544.37 230.813 1544.3 230.284C1544.28 230.1 1544.28 229.939 1544.3 229.755L1544.53 227.846L1541.98 222.187C1541.98 222.187 1541.98 222.118 1541.96 222.072C1541.89 221.865 1541.82 221.658 1541.8 221.451L1541.48 216.138L1528.69 215.977L1503.71 217.173L1502.74 217.219H1502.67L1474.63 217.265V228.168L1475.57 240.635L1476.42 245.42L1477 246.363L1479.62 250.664C1479.76 250.894 1479.85 251.124 1479.9 251.378L1481.05 257.68L1484.29 261.775L1486.61 264.696C1486.87 265.018 1487.03 265.432 1487.05 265.846L1487.3 269.411L1487.67 269.779C1488.11 270.216 1488.32 270.815 1488.27 271.413L1487.35 282.891C1487.33 283.213 1487.24 283.512 1487.07 283.788L1483.76 289.377L1485.05 291.034C1485.46 291.563 1485.58 292.23 1485.42 292.874L1484.54 296.117L1483.62 305.87C1483.62 306.077 1483.56 306.307 1483.46 306.491L1481.81 310.356L1481.95 312.035L1485.56 310.862C1485.74 310.793 1485.92 310.77 1486.11 310.77L1497.08 310.333C1497.33 310.333 1497.59 310.356 1497.84 310.448L1511.71 315.209L1519.74 316.612L1522.31 315.6L1522.18 315.531C1521.46 315.117 1521.07 314.289 1521.16 313.484C1521.26 312.748 1521.72 310.264 1523.83 309.735C1524.41 309.597 1526.59 308.884 1527.83 308.47C1528.5 308.239 1529.26 308.378 1529.81 308.838L1531.15 309.919L1532.32 309.275C1532.76 309.045 1533.24 308.976 1533.72 309.068L1538.12 309.942C1538.69 310.057 1539.2 310.402 1539.5 310.908L1541.48 314.197C1541.61 314.427 1541.71 314.703 1541.75 314.979L1541.96 316.382L1546.42 316.704C1546.93 316.75 1547.39 316.957 1547.75 317.302L1550.17 319.718C1550.81 320.362 1550.95 321.328 1550.56 322.133L1549.46 324.318C1549.37 324.502 1549.25 324.663 1549.11 324.801L1549.2 324.893L1559.46 329.241L1562.64 328.091L1563.6 325.675C1563.86 325.054 1564.39 324.594 1565.03 324.433L1568.09 323.674L1570.14 321.995C1570.87 321.397 1571.93 321.374 1572.71 321.949L1574.46 323.26C1574.83 323.536 1575.1 323.927 1575.22 324.364L1575.84 326.618L1576.85 325.1C1576.58 324.916 1576.32 324.64 1576.16 324.341C1575.86 323.743 1575.84 323.053 1576.16 322.455L1576.99 320.822L1576.83 319.465C1576.71 318.407 1577.41 317.44 1578.44 317.21L1580.63 316.704L1581.71 315.462C1582.12 315.002 1582.7 314.772 1583.32 314.749C1583.94 314.749 1584.51 315.048 1584.9 315.531L1585.78 316.635C1586.1 317.026 1586.26 317.532 1586.24 318.039C1586.19 318.752 1586.24 319.534 1586.28 320.109L1586.42 320.017Z" fill="#070D1D"/>
<path d="M1398.45 359.627L1402.68 358.822L1410.13 354.267L1412.43 352.381C1412.43 352.381 1412.64 352.22 1412.75 352.151L1421.31 347.55L1429.02 344.238L1436.03 339.983L1439.57 337.268L1447.17 330.115C1447.17 330.115 1447.37 329.931 1447.49 329.862L1449.24 328.757L1452 326.848L1455.06 324.571L1456.16 322.386C1456.37 321.949 1456.73 321.627 1457.15 321.42L1470.51 315.278C1470.51 315.278 1470.72 315.186 1470.83 315.163L1477.78 313.277L1477.67 310.01C1477.67 310.01 1477.67 309.964 1477.67 309.941C1477.67 309.665 1477.71 309.389 1477.83 309.136L1479.55 305.088L1480.45 295.496C1480.45 295.381 1480.47 295.266 1480.52 295.151L1481.16 292.736L1479.64 290.78C1479.51 290.619 1479.41 290.435 1479.35 290.228C1479.12 289.653 1479.18 288.986 1479.51 288.434L1483.3 282.04L1484.11 272.011L1483.85 271.757C1483.85 271.757 1483.72 271.55 1483.65 271.458C1483.58 271.366 1483.49 271.274 1483.44 271.159C1483.35 270.929 1483.28 270.699 1483.26 270.446L1482.98 266.743L1480.7 263.845L1477.51 259.796C1477.39 259.658 1477.32 259.52 1477.23 259.359C1477.16 259.198 1477.11 259.037 1477.07 258.876L1475.9 252.435L1473.27 248.134L1472.7 247.191C1472.56 246.961 1472.47 246.731 1472.42 246.455L1471.5 241.187C1471.5 241.187 1471.5 241.049 1471.48 240.98L1470.56 228.26L1470.51 215.172L1469.71 201.324L1468.03 200.634L1464.83 202.106C1464.1 202.451 1463.22 202.336 1462.6 201.807L1460.6 200.105C1460.32 200.059 1460.05 199.99 1459.82 199.852L1456.32 197.805L1452.23 196.632C1452.06 196.586 1451.9 196.517 1451.77 196.425L1447.42 193.94C1447.19 193.802 1447 193.641 1446.84 193.457L1444.5 190.582L1444.01 190.467L1442.68 192.192C1442.29 192.698 1441.67 192.997 1441.02 192.997H1435.43C1434.61 192.997 1433.85 192.491 1433.52 191.732L1433.27 191.134L1430.51 193.204C1429.91 193.664 1429.11 193.756 1428.42 193.434L1426.03 192.376H1422.18L1421.68 194.239C1421.52 194.814 1421.13 195.297 1420.6 195.551L1418.94 196.379L1418.11 196.793C1418.11 196.793 1417.88 196.862 1417.75 196.885C1417.61 196.931 1417.49 196.977 1417.33 197C1417.08 197 1416.8 197 1416.55 196.908L1415.93 196.724L1412.52 195.666L1407.62 193.825L1402.24 192.928C1401.62 192.813 1401.07 192.445 1400.77 191.893L1400.4 191.203L1399.71 192.767L1398.93 194.515C1398.81 194.791 1398.63 194.998 1398.42 195.205C1398.29 195.343 1398.15 195.458 1397.96 195.551L1396.1 196.471C1395.57 196.724 1394.97 196.77 1394.42 196.563L1387.91 194.078C1387.34 193.871 1386.9 193.411 1386.69 192.836L1385.96 190.789H1384C1383.75 190.789 1383.49 190.743 1383.26 190.651L1382.05 190.191L1379.88 192.33C1379.33 192.882 1378.55 193.066 1377.81 192.859L1374.71 191.939C1373.83 191.663 1373.21 190.858 1373.21 189.938V188.742C1372.89 188.604 1372.59 188.374 1372.38 188.075L1369.46 184.072L1366.63 183.497L1365.02 184.946L1364.31 185.59C1364.17 185.705 1364.01 185.798 1363.87 185.867C1363.6 186.005 1363.32 186.097 1363.02 186.12C1362.56 186.143 1362.08 186.004 1361.69 185.728L1358.68 183.543L1358.28 183.474L1353.57 182.692C1353.38 182.669 1353.22 182.6 1353.04 182.531L1349.98 181.151L1344.78 180.852C1344.21 180.829 1343.68 180.553 1343.31 180.116C1342.94 179.679 1342.76 179.104 1342.83 178.529L1343.24 175.009C1342.87 175.377 1342.37 175.584 1341.79 175.584H1339.01C1338.57 175.584 1338.13 175.446 1337.79 175.193C1337.7 175.285 1337.6 175.354 1337.51 175.446C1337.33 175.584 1337.12 175.722 1336.89 175.791L1335.97 176.09C1335.42 176.275 1334.82 176.228 1334.29 175.929L1333.51 175.492L1331.49 174.365C1331.37 174.296 1331.26 174.227 1331.16 174.135L1325.28 169.167C1324.88 168.845 1324.63 168.385 1324.56 167.856L1324.26 165.693C1324.26 165.578 1324.24 165.463 1324.26 165.348L1324.88 141.173L1326.63 110.994L1286.61 109.522L1257.58 108.141L1255.58 131.489L1250.31 206.799L1247.21 239.094C1247.09 240.198 1246.12 241.095 1245.02 240.98L1205.64 238.818L1158.05 234.402L1158.44 236.794L1159.54 237.07C1159.96 237.162 1160.33 237.392 1160.6 237.714L1164.1 241.67C1164.28 241.877 1164.42 242.13 1164.51 242.406L1166.21 247.49L1171.78 250.181C1172.24 250.411 1172.61 250.802 1172.82 251.285L1174.43 255.334L1183.83 265.8L1185.33 267.663L1191.63 270.308C1192.07 270.492 1192.44 270.814 1192.67 271.251L1193.93 273.598L1195.63 274.61C1196.16 274.932 1196.51 275.438 1196.62 276.036L1197.22 279.463L1201.48 287.951C1201.61 288.25 1201.71 288.549 1201.71 288.894V299.383L1204.42 305.019L1213.97 314.979L1220.57 317.647C1220.84 317.762 1221.12 317.946 1221.33 318.176L1223.74 320.799C1224.02 321.098 1224.2 321.466 1224.27 321.88L1228.34 324.249L1230.76 325.054C1230.92 325.1 1231.08 325.192 1231.22 325.284L1233.45 326.71L1235.5 327.469L1237.71 325.261L1243.3 317.394L1244.51 312.725C1244.58 312.495 1244.68 312.265 1244.81 312.058L1247.87 307.664C1248.1 307.342 1248.42 307.089 1248.79 306.928L1259.79 302.535C1260.45 302.282 1261.21 302.374 1261.79 302.788L1265.49 305.502L1274.99 306.33L1284.35 307.894C1284.72 307.963 1285.04 308.101 1285.32 308.331L1288.82 311.184C1289.3 311.575 1289.6 312.173 1289.6 312.794V313.576L1292.52 317.049L1300.53 324.18C1300.92 324.525 1301.15 324.985 1301.22 325.514L1301.35 326.802L1303.31 328.918C1303.56 329.194 1303.75 329.563 1303.81 329.931L1304.87 335.405L1312 351.852C1312.14 352.174 1312.19 352.519 1312.16 352.864L1312.05 354.221L1316.65 357.05C1316.97 357.234 1317.22 357.51 1317.39 357.832L1322.12 366.665L1326.26 372.002L1330.13 373.543C1330.5 373.681 1330.82 373.934 1331.05 374.279L1333.23 377.339C1333.6 377.868 1333.72 378.535 1333.53 379.133L1332.06 384.124V384.17L1333.35 384.791C1334.11 385.182 1334.57 385.987 1334.5 386.862L1334.06 391.462C1334.02 391.945 1333.81 392.405 1333.46 392.75L1333.79 393.854L1337.47 396.062C1337.97 396.362 1338.32 396.868 1338.43 397.443L1340.14 405.908L1342.5 410.278L1351.96 414.51L1358.77 416.006C1359.04 416.075 1359.32 416.19 1359.55 416.351L1364.89 420.238L1368.24 420.905L1369.44 420.468C1369.67 420.376 1369.92 420.33 1370.18 420.33C1370.31 420.33 1370.45 420.33 1370.59 420.376L1378.04 421.917C1378.32 421.963 1378.57 422.078 1378.8 422.239L1385.33 426.725L1387.96 425.069L1388.26 424.608L1386.6 422.032C1386.44 421.779 1386.35 421.503 1386.3 421.227L1384.99 412.9L1382.62 403.676L1381.56 400.525C1381.45 400.203 1381.42 399.835 1381.49 399.49L1382.6 393.348C1382.6 393.348 1382.62 393.21 1382.64 393.141L1385.93 381.755L1387.57 375.613L1385.5 373.842C1384.76 373.221 1384.55 372.186 1384.99 371.335L1386.3 368.713C1386.62 368.069 1387.27 367.632 1388 367.563L1392.51 367.194L1397.2 360.547C1397.53 360.11 1397.99 359.811 1398.52 359.696L1398.45 359.627Z" fill="#070D1D"/>
<path d="M1777 346.262L1776.26 345.963L1776.74 347.09L1777 346.262Z" fill="#070D1D"/>
<path d="M938.582 175.032L957.927 177.172L962.39 176.298L963.678 174.411L963.908 173.238L961.125 172.801C960.504 172.709 959.951 172.318 959.629 171.766L959.008 170.685C958.87 170.455 958.778 170.179 958.755 169.926C958.709 169.65 958.755 169.374 958.801 169.121L959.353 167.051L959.491 159.391C959.491 158.517 960.09 157.735 960.918 157.459L962.873 156.815L963.264 156.677L966.254 153.801L966.944 147.89C966.944 147.706 967.013 147.522 967.082 147.338L969.106 142.369C969.221 142.116 969.359 141.886 969.567 141.679L972.212 139.034C972.373 138.873 972.557 138.735 972.764 138.643L977.18 136.434L978.468 135.33L978.514 134.433L978.261 134.295C978.008 134.157 977.801 133.973 977.64 133.743L976.559 132.34C976.375 132.087 976.237 131.811 976.168 131.489L974.535 123.898L970.97 117.503C970.855 117.296 970.763 117.066 970.74 116.836C970.74 116.744 970.74 116.652 970.74 116.56C970.74 116.422 970.717 116.284 970.74 116.146V115.962L971.361 112.604L968.531 108.946L948.726 77.9392L922.389 38.6051L891.542 -7.26168L874.751 -32.4723C874.429 -32.9554 874.314 -33.5534 874.452 -34.1285L876.66 -43.0304L886.137 -78.2471L896.304 -118.662L880.294 -123.286L874.475 -124.758L862.053 -127.909L844.87 -133.522L834.749 -136.282L819.269 -140.308L811.54 -142.953L810.16 -138.835L809.953 -129.059C809.953 -128.783 809.884 -128.507 809.769 -128.277L802.753 -112.268C802.615 -111.969 802.431 -111.716 802.178 -111.509L798.498 -108.403L798.245 -107.483C798.084 -106.885 797.669 -106.402 797.094 -106.149L795.507 -105.436L793.828 -100.582L793 -97.2701L796.22 -92.3246C796.289 -92.2096 796.358 -92.0716 796.427 -91.9335L798.613 -86.229L800.2 -81.2834C800.269 -81.0534 800.315 -80.8004 800.292 -80.5474L799.855 -71.7834C799.855 -71.4614 799.74 -71.1394 799.579 -70.8403L797.393 -67.0679L796.565 -59.6152C796.565 -59.6152 796.542 -59.4081 796.519 -59.3161L795.392 -54.9917L797.439 -50.5292L801.097 -44.5026C801.097 -44.5026 801.166 -44.3646 801.212 -44.2956L804.271 -37.7169C804.271 -37.7169 804.34 -37.5559 804.363 -37.4639L806.111 -31.9893C806.203 -31.7132 806.226 -31.4372 806.203 -31.1382L805.766 -26.7447C805.743 -26.3997 805.605 -26.0776 805.421 -25.8016L805.329 -25.6636V-24.2375L812.46 -16.2786C812.897 -15.7956 813.081 -15.1285 812.943 -14.4844L812.276 -11.1951L811.356 -7.95176L810.574 -5.58252L810.781 4.72259L813.311 9.18502L815.358 11.9223L818.28 12.4284C819.016 12.5664 819.637 13.0724 819.89 13.7855L821.201 17.5119C821.362 17.949 821.362 18.409 821.201 18.8461L819.66 23.6765C819.522 24.0906 819.292 24.4356 818.947 24.6887L816.094 26.8739C815.772 27.1269 815.381 27.2649 814.99 27.3109L814.323 30.5313L814.829 33.5906L818.924 39.1112C819.062 39.2952 819.177 39.5252 819.246 39.7552L823.409 53.3266L825.042 57.168L831.575 68.4852C831.69 68.6922 831.782 68.9223 831.805 69.1753L832.311 72.1656L833.668 72.9937C834.289 73.3618 834.68 74.0518 834.68 74.7879V78.0773C834.68 78.3533 834.634 78.6293 834.519 78.8823L833.484 81.3666L830.724 92.4307L832.748 94.731L837.648 95.306C837.832 95.306 837.993 95.375 838.177 95.4441L844.318 97.8593C844.318 97.8593 844.479 97.9283 844.548 97.9743L849.356 100.574H852.783C853.358 100.574 853.91 100.804 854.301 101.218L858.258 105.381C858.396 105.519 858.488 105.68 858.58 105.841L863.341 114.95L867.712 117.319L873.945 118.354C874.498 118.446 875.004 118.769 875.326 119.229L877.304 122.081C877.465 122.311 877.58 122.587 877.626 122.863L878.5 127.256C878.592 127.716 878.523 128.176 878.339 128.568L879.627 128.89L883.169 129.097C883.837 129.143 884.458 129.511 884.826 130.086L888.667 136.273L893.797 141.817C893.981 142.024 894.142 142.277 894.234 142.53L895.246 145.382L898.627 150.903C898.788 151.179 898.903 151.478 898.926 151.777L899.363 156.17V168.822L899.593 169.65L911.83 171.421L938.559 175.147L938.582 175.032Z" fill="#070D1D"/>
<path d="M1741.37 -61.2254C1741.11 -60.9724 1740.79 -60.7883 1740.42 -60.6963L1736.03 -59.5922L1732.21 -58.9481L1725.01 -55.5668C1724.78 -55.4518 1724.53 -55.3828 1724.28 -55.3828L1721.42 -55.1527C1720.85 -55.1067 1720.3 -55.2908 1719.86 -55.6818L1715.97 -59.2012L1709.9 -58.4421C1709.46 -58.3731 1709 -58.4651 1708.61 -58.6951L1703 -61.8694L1696.51 -61.2944L1674.18 -57.775L1675.74 -40.0402V-39.9251L1678.16 -21.3622L1681.67 10.4731L1681.9 13.1414L1682.25 16.2927L1685.56 16.0857L1688.6 15.0736C1689.15 14.8896 1689.77 14.9356 1690.28 15.2346L1694.23 17.4198C1694.67 17.6499 1694.99 18.0409 1695.18 18.524L1696.9 23.1704L1703.44 23.5385C1703.94 23.5615 1704.42 23.7915 1704.79 24.1365L1706.66 25.9998L1708.08 26.1147L1710.8 24.4816C1711.21 24.2286 1711.72 24.1365 1712.2 24.2055L1716.36 24.8726C1716.85 24.9416 1717.28 25.1947 1717.6 25.5397L1717.93 25.9077L1720.09 23.8605C1720.09 23.8605 1720.23 23.7455 1720.3 23.6995L1722.71 21.9513C1723.08 21.6983 1723.49 21.5603 1723.93 21.5603H1726.12C1727.08 21.5603 1727.93 22.2273 1728.14 23.1704L1728.81 25.9998L1730.39 26.8738L1735.27 29.7491L1736.6 29.7032L1737.69 29.2431L1737.82 26.8279C1737.85 26.2758 1738.1 25.7697 1738.51 25.4017L1740.05 24.0216L1740.24 18.1099C1740.24 17.9719 1740.26 17.8109 1740.31 17.6729L1741.62 12.4053C1741.76 11.8073 1742.17 11.3242 1742.7 11.0482L1744.45 10.1741C1745.21 9.80606 1746.13 9.92108 1746.75 10.4731L1747.55 11.1862C1747.35 10.8642 1747.23 10.4731 1747.23 10.0821V6.79274C1747.23 6.33269 1747.37 5.89566 1747.65 5.55063L1748.96 3.80242L1751.97 -0.706032C1751.97 -0.706032 1752.09 -0.867063 1752.15 -0.93607L1753.9 -2.91428C1754.41 -3.48934 1755.19 -3.74236 1755.93 -3.55834L1757.86 -3.12129L1759.98 -4.63946L1763.84 -8.91791L1766.55 -13.5644L1766.97 -20.7411L1767.63 -27.6189V-33.3925L1766.21 -37.2109C1765.98 -37.8319 1766.07 -38.545 1766.44 -39.0971L1767.75 -41.0753C1767.75 -41.0753 1767.91 -41.2823 1768 -41.3973L1768.81 -42.2024L1766.76 -55.1758L1763.24 -78.3622L1751.3 -71.3924L1746.91 -66.5849L1741.34 -61.2254H1741.37Z" fill="#070D1D"/>
<path d="M981.827 198.288L998.342 208.639L1018.24 220.232L1040.74 233.643L1057.04 236.863L1091.13 241.325L1093.6 225.293L1098.68 188.811L1108.11 116.675L1113.49 77.2952L1080.99 72.0737H1080.78L1043.86 65.84L1043.4 65.748L1000.67 57.8582L997.054 79.6414L996.985 80.0785C996.916 80.5155 996.709 80.9066 996.41 81.2286L995.95 81.6887L993.742 85.07C993.328 85.6911 992.638 86.0591 991.902 86.0131L988.497 85.8521C987.899 85.8291 987.37 85.5531 987.002 85.116C986.887 84.978 986.772 84.817 986.703 84.633L985.484 81.9647L982.908 81.6426C982.379 81.5736 981.873 81.2976 981.528 80.8836L981.045 80.2625L980.562 80.5615L978.882 81.4586L978.744 89.6935C978.744 89.6935 978.744 89.8545 978.744 89.9465L978.445 92.2698L977.686 109.131C977.686 109.522 977.548 109.89 977.318 110.212L977.019 110.649L975.57 112.788L974.972 116.1L978.33 122.127C978.422 122.311 978.514 122.495 978.537 122.702L980.148 130.132L980.677 130.822L981.712 131.397C982.402 131.788 982.816 132.524 982.793 133.329L982.632 136.434C982.609 137.009 982.333 137.539 981.896 137.907L979.734 139.77C979.596 139.885 979.458 139.977 979.297 140.046L974.949 142.208L972.856 144.301L971.108 148.603L970.372 154.974C970.326 155.457 970.096 155.894 969.75 156.239L965.886 159.966C965.656 160.173 965.403 160.334 965.104 160.449L963.701 160.909L963.586 167.35C963.586 167.511 963.563 167.695 963.517 167.856L963.241 168.891L966.783 169.443C967.358 169.535 967.841 169.857 968.186 170.317C968.347 170.547 968.462 170.823 968.508 171.099C968.554 171.375 968.554 171.651 968.508 171.95L967.726 175.677C967.68 175.953 967.565 176.206 967.404 176.436L965.38 179.38C965.219 179.61 965.035 179.794 964.828 179.932C964.782 179.978 964.713 179.978 964.644 180.001C964.483 180.093 964.322 180.185 964.161 180.208L959.514 181.335L956.869 183.497L956.754 184.049L956.8 184.141L981.896 198.288H981.827Z" fill="#070D1D"/>
<path d="M1819.76 131.903L1816.47 130.983L1793.86 133.559C1793.01 133.651 1792.16 133.214 1791.76 132.409L1789.76 128.407L1787.62 126.566L1766.07 127.211L1756.75 128.246L1744.82 134.226L1737.96 137.102L1738.05 138.551C1738.05 138.551 1738.05 138.735 1738.03 138.827C1738.03 138.919 1738.03 139.034 1738.01 139.126C1737.98 139.241 1737.94 139.333 1737.89 139.448C1737.85 139.54 1737.82 139.655 1737.78 139.747C1737.73 139.839 1737.66 139.908 1737.59 139.977C1737.52 140.069 1737.46 140.161 1737.36 140.253C1737.29 140.299 1737.23 140.345 1737.13 140.391C1737.02 140.46 1736.93 140.552 1736.79 140.598L1734.49 141.587L1733.96 142.875L1734.17 144.025L1735.27 145.129L1739.99 147.959L1743.97 147.775C1744.72 147.729 1745.41 148.097 1745.81 148.718L1750.41 155.733C1750.5 155.894 1750.59 156.056 1750.64 156.217L1751.17 157.827L1754.2 161.461C1754.36 161.668 1754.5 161.898 1754.57 162.128L1754.91 163.186L1760.14 165.233C1760.3 165.302 1760.46 165.395 1760.62 165.487L1764.78 168.546C1764.94 168.661 1765.08 168.799 1765.2 168.937L1768 172.548L1770.72 174.089C1770.86 174.158 1770.99 174.25 1771.11 174.365L1773.96 176.988C1774.14 177.149 1774.31 177.356 1774.42 177.586L1776.01 180.76L1778.33 182.899L1783.74 185.384C1784.2 185.591 1784.54 185.959 1784.75 186.419L1788.48 194.539C1788.48 194.539 1788.54 194.677 1788.57 194.746L1790.41 200.243L1792.8 200.841C1793.14 200.933 1793.47 201.094 1793.72 201.347L1796.78 204.2C1797.03 204.43 1797.22 204.706 1797.33 205.005L1799.08 209.835L1799.72 211.928L1801.47 212.802L1802.87 212.043L1805.43 210.479L1811.22 204.108L1810.26 200.864C1810.07 200.243 1810.19 199.599 1810.56 199.07C1810.93 198.541 1811.5 198.219 1812.14 198.196L1815.32 198.012L1819.57 193.94C1819.74 193.802 1819.9 193.687 1820.08 193.595L1821.78 192.744L1824.54 188.604C1824.54 188.604 1824.7 188.374 1824.8 188.282L1828.34 184.74L1831.05 180.139C1831.33 179.679 1831.79 179.334 1832.32 179.196L1834.6 178.575L1835.75 175.815C1835.93 175.355 1836.3 174.963 1836.73 174.733L1837.86 174.158L1838.44 166.798C1838.44 166.568 1838.51 166.361 1838.6 166.154L1842.09 157.827C1842.19 157.574 1842.35 157.367 1842.53 157.16L1848.1 151.547L1836.44 141.932L1819.71 131.857L1819.76 131.903Z" fill="#070D1D"/>
<path d="M1745.16 100.252C1745.53 100.551 1745.81 100.942 1745.9 101.402C1746.15 101.425 1746.38 101.471 1746.61 101.517L1748.89 97.9283C1749.16 97.5143 1749.56 97.1923 1750.04 97.0543L1752.89 96.1802C1753.19 96.0881 1753.49 96.0651 1753.81 96.1112L1755.33 96.3182L1756.87 92.9138C1756.98 92.6378 1757.17 92.4078 1757.38 92.2237L1760.83 89.1644L1761.29 87.1862V84.2649H1761.26L1758.55 86.4271C1758.18 86.7032 1757.74 86.8642 1757.28 86.8872L1746.68 87.0942L1730.56 89.6475L1717.28 90.8896C1717.28 90.8896 1717.12 90.9586 1717.05 90.9586L1647.95 97.4913L1646.73 97.6063L1619.13 100.712C1619.13 100.712 1618.95 100.712 1618.88 100.712H1615.73V103.84C1615.73 104.944 1614.85 105.864 1613.77 105.933L1602.36 106.6L1593 107.474H1592.79L1579.75 107.727L1579.5 113.455C1579.5 113.616 1579.45 113.8 1579.41 113.961C1579.41 113.961 1579.41 113.984 1579.41 114.007C1579.41 114.007 1579.41 114.03 1579.41 114.053L1579.34 114.237L1576.62 122.702C1576.55 122.932 1576.42 123.139 1576.28 123.323L1575.15 126.635L1573.38 132.363L1572.97 135.698C1572.87 136.365 1572.48 136.94 1571.91 137.262L1568.04 139.425L1569.31 142.53C1569.38 142.714 1569.45 142.921 1569.45 143.128C1569.45 143.197 1569.45 143.289 1569.45 143.358C1569.45 143.473 1569.45 143.611 1569.45 143.726V143.772L1568.27 149.385L1575.06 149.316L1607.56 146.693L1615.04 146.371C1615.04 146.371 1615.22 146.302 1615.31 146.302L1625.83 145.796L1626.95 145.704L1663.43 142.3L1668.01 141.932L1676.91 141.127C1676.91 141.127 1676.98 141.104 1677.01 141.104L1688.62 139.908L1699.96 138.39L1704.84 137.584L1705.16 132.662C1705.21 132.087 1705.48 131.558 1705.92 131.19L1708.33 129.212C1708.59 129.005 1708.86 128.867 1709.19 128.798L1711.58 128.246L1712.22 124.565C1712.31 123.99 1712.66 123.484 1713.14 123.185L1718.85 119.459C1718.99 119.367 1719.12 119.298 1719.26 119.252L1724.18 117.411L1729.61 112.811C1729.75 112.696 1729.89 112.604 1730.05 112.535L1735.04 110.12L1735.71 106.968C1735.8 106.577 1735.98 106.209 1736.28 105.933L1741.55 100.666C1741.83 100.39 1742.15 100.206 1742.52 100.114L1743.39 99.9065C1743.71 99.8375 1744.01 99.8145 1744.33 99.9065C1744.63 99.9755 1744.93 100.114 1745.18 100.298L1745.16 100.252Z" fill="#070D1D"/>
<path d="M1864.15 144.025L1866.82 135.077C1866.89 134.847 1866.98 134.64 1867.12 134.456L1871.72 128.108C1871.84 127.97 1871.95 127.832 1872.09 127.717L1880.85 120.494C1880.99 120.379 1881.13 120.287 1881.29 120.218L1888.31 116.928C1888.44 116.859 1888.58 116.813 1888.72 116.79L1892.45 115.916C1892.88 115.824 1893.34 115.847 1893.76 116.031L1895.07 116.514L1897.39 112.857C1896.89 112.65 1896.47 112.236 1896.26 111.707L1895.92 110.833H1891.64C1890.97 110.833 1890.35 110.511 1889.96 109.982C1889.57 109.453 1889.46 108.763 1889.64 108.119L1891.99 100.505H1890.54C1889.39 100.505 1888.44 99.5616 1888.44 98.4115V97.3534L1888.08 95.8582C1887.87 94.9841 1888.21 94.0871 1888.97 93.604C1889.73 93.121 1890.7 93.1669 1891.41 93.719L1893.14 95.0991L1897.28 95.6282L1901.05 93.995L1902.43 90.9127L1903.26 88.1754C1903.42 87.6234 1903.81 87.1863 1904.32 86.9333L1906.78 85.7142L1907.03 82.2868L1906.8 82.1028C1906.13 81.5737 1905.86 80.6766 1906.11 79.8485C1906.36 79.0205 1907.1 78.4454 1907.97 78.3994L1908.69 78.3534V78.2844L1905.76 75.3861C1905.63 75.2481 1905.51 75.087 1905.42 74.926L1900.59 66.1621C1900.59 66.1621 1900.5 65.9781 1900.45 65.8631L1898.82 61.4006L1894.45 62.8498L1894.13 62.9648L1878.39 66.9672L1852.31 72.1657L1824.34 77.2953L1801.03 80.8146L1779.53 83.4599L1769.98 85.1851C1769.77 85.2311 1769.54 85.2311 1769.34 85.1851L1765.7 84.6791L1765.56 87.5774C1765.56 87.7154 1765.56 87.8304 1765.52 87.9454L1764.85 90.7977C1764.76 91.2118 1764.53 91.6028 1764.21 91.8788L1760.6 95.0991L1758.6 99.5156C1758.2 100.367 1757.33 100.85 1756.41 100.712L1753.81 100.344L1752.13 100.85L1749.46 105.036C1748.96 105.818 1748.01 106.163 1747.14 105.933C1746.77 105.818 1746.13 105.68 1745.58 105.611C1745.39 105.611 1745.23 105.565 1745.07 105.565C1744.33 105.565 1743.74 105.335 1743.25 104.967L1739.76 108.464L1739 112.029C1738.86 112.673 1738.44 113.202 1737.87 113.478L1732.19 116.215L1726.69 120.862C1726.51 121.023 1726.3 121.138 1726.07 121.23L1721.03 123.116L1716.29 126.221L1715.58 130.362C1715.44 131.19 1714.82 131.834 1713.99 132.041L1710.73 132.8L1709.39 133.881L1709.16 137.171L1715.97 136.688L1725.31 135.606L1726.76 135.353L1733.38 134.203L1735.29 133.674C1735.43 133.628 1735.55 133.674 1735.68 133.674L1743.16 130.523L1755.31 124.45C1755.54 124.335 1755.77 124.266 1756.02 124.243L1765.89 123.139L1788.41 122.472C1788.91 122.426 1789.44 122.633 1789.83 122.978L1792.89 125.6C1793.1 125.784 1793.28 125.991 1793.4 126.244L1794.94 129.327L1816.49 126.865C1816.56 126.865 1816.65 126.865 1816.72 126.865C1816.91 126.865 1817.07 126.888 1817.25 126.934C1817.25 126.934 1817.25 126.934 1817.27 126.934L1821.23 128.039C1821.41 128.085 1821.6 128.154 1821.76 128.269L1838.85 138.574C1838.85 138.574 1839.01 138.666 1839.08 138.735L1851.89 149.017L1858.52 146.51C1858.68 146.441 1858.86 146.395 1859.05 146.395L1863.88 145.888L1864.22 144.117L1864.15 144.025Z" fill="#070D1D"/>
<path d="M1113.54 232.516C1113.61 231.963 1113.91 231.457 1114.34 231.112C1114.8 230.767 1115.38 230.629 1115.91 230.721L1138.5 234.218L1153.95 236.242L1153.42 232.423C1153.38 232.147 1153.42 231.871 1153.49 231.618C1153.49 231.595 1153.49 231.572 1153.49 231.526C1153.59 231.227 1153.75 230.928 1153.98 230.675C1153.98 230.652 1154.02 230.652 1154.05 230.629C1154.23 230.445 1154.46 230.284 1154.71 230.192C1154.74 230.192 1154.76 230.192 1154.78 230.169C1155.06 230.077 1155.33 230.031 1155.63 230.054C1155.63 230.054 1155.66 230.054 1155.68 230.054L1166.54 230.974L1205.92 234.701L1243.2 236.748L1246.1 206.5L1251.37 131.213L1253.53 105.749C1253.53 105.749 1253.6 105.542 1253.62 105.45C1253.67 105.312 1253.69 105.151 1253.74 105.036C1253.76 104.967 1253.83 104.921 1253.85 104.852C1253.95 104.691 1254.06 104.53 1254.2 104.415C1254.2 104.415 1254.24 104.392 1254.27 104.369C1254.45 104.231 1254.64 104.093 1254.84 104.024C1254.89 104.024 1254.93 104.024 1254.96 103.978C1254.98 103.978 1255 103.978 1255.05 103.955L1255.37 97.1693V92.0168L1212.54 88.9115L1117.73 77.5713L1112.25 117.25L1102.8 189.386L1097.71 225.914L1095.25 241.877L1112.02 244.04L1113.52 232.516H1113.54Z" fill="#070D1D"/>
<path d="M1591.14 305.18C1590.98 305.778 1590.59 306.261 1590.06 306.537H1593.16L1594.31 304.536L1593.28 302.995C1593.09 302.719 1592.98 302.397 1592.93 302.075L1592.82 301.155L1591.85 302.19L1591.09 305.18H1591.14Z" fill="#070D1D"/>
<path d="M1609.61 285.72C1609.86 285.766 1610.09 285.835 1610.3 285.95L1611.79 286.778H1617.36L1617.68 286.433L1615.75 266.513L1612.05 241.164C1612.05 241.164 1612.02 240.957 1612.05 240.842L1612.28 221.773L1613.38 179.656L1613.15 157.16V155.871V150.742L1607.86 150.903L1575.31 153.525L1565.4 153.617L1565.31 156.24C1565.31 156.24 1565.28 156.401 1565.26 156.47C1565.26 156.562 1565.26 156.654 1565.21 156.746C1565.17 156.861 1565.12 156.976 1565.08 157.091C1565.03 157.16 1565.01 157.229 1564.96 157.298C1564.89 157.413 1564.78 157.528 1564.68 157.62C1564.64 157.666 1564.62 157.712 1564.55 157.758C1564.39 157.896 1564.2 158.011 1564.02 158.103L1561 159.368L1558.13 164.888L1558.59 165.786C1558.73 166.085 1558.82 166.384 1558.82 166.729V170.133C1558.82 170.363 1558.77 170.57 1558.7 170.777C1558.5 171.398 1558.01 171.904 1557.37 172.111L1554.31 173.123L1550.35 178.828L1550.95 180.622C1551.14 181.197 1551.07 181.841 1550.77 182.347C1550.68 182.508 1550.54 182.669 1550.38 182.807L1546.88 186.028L1545.75 193.664L1545.32 195.459L1546.67 197.483C1547.09 198.104 1547.13 198.886 1546.83 199.53C1546.74 199.737 1546.6 199.944 1546.42 200.128L1545.59 200.956L1546.83 203.67C1546.93 203.877 1547 204.108 1547.02 204.361L1547.57 210.249C1547.57 210.249 1547.57 210.318 1547.57 210.364C1547.57 210.525 1547.57 210.686 1547.55 210.847C1547.55 210.916 1547.5 210.985 1547.48 211.054C1547.43 211.169 1547.41 211.284 1547.36 211.399L1545.75 214.505L1546.1 220.784L1548.72 226.627C1548.88 226.972 1548.93 227.363 1548.88 227.731L1548.72 229.065L1550.91 230.813C1551.53 231.319 1551.8 232.101 1551.64 232.884L1550.72 237.231C1550.63 237.668 1550.4 238.036 1550.1 238.335L1550.29 238.749C1550.42 239.048 1550.47 239.37 1550.47 239.715C1550.47 240.037 1550.35 240.359 1550.19 240.658L1543.06 253.057L1538.65 261.015L1537.8 271.045L1537.86 271.298L1569.1 270.4L1581.96 269.227L1582.53 269.181C1583.27 269.089 1584.01 269.411 1584.47 270.009L1585.09 270.837L1585.39 271.252C1585.39 271.252 1585.39 271.252 1585.39 271.275C1585.71 271.712 1585.85 272.264 1585.78 272.816L1584.4 281.971L1588.24 285.559C1588.52 285.812 1588.72 286.134 1588.81 286.502L1590.31 291.563L1590.56 292.046L1593.12 287.905C1593.67 287.008 1594.79 286.663 1595.76 287.1L1597.46 287.882L1605.93 285.467C1606.23 285.375 1606.53 285.375 1606.83 285.421L1609.68 285.858L1609.61 285.72Z" fill="#070D1D"/>
<path d="M1081.45 67.9331H1081.63L1114.18 72.8096L1114.71 69.6353L1121.84 16.6838L1126.44 -15.7726L1129.5 -41.6503L1124.44 -42.3404L1119.75 -42.9385L1087.98 -47.3089C1086.83 -47.47 1086.05 -48.5281 1086.21 -49.6552L1088.47 -65.7799L1088.99 -69.1612L1090.28 -78.2012L1074.6 -80.8004L1044.35 -86.068L1040.78 -86.7351L1029.19 -88.7593L1027.99 -83.1927L1023.19 -59.5002L1018.08 -31.7823L1015.43 -19.614L1012.51 -1.2811L1008 21.2843L1003.66 41.9174V41.9634L1001.47 53.6027L1044.07 61.6535L1044.62 61.7685L1081.47 67.9561L1081.45 67.9331Z" fill="#070D1D"/>
<path d="M1546.17 -70.8633C1546.17 -70.8633 1546.19 -70.8633 1546.21 -70.8173L1547.46 -69.2762C1547.64 -69.0461 1547.78 -68.7701 1547.85 -68.4711L1548.31 -66.6309L1553.09 -62.4215C1553.39 -62.1684 1553.6 -61.8234 1553.71 -61.4553L1554.66 -58.35C1554.7 -58.189 1554.72 -58.005 1554.75 -57.844C1554.75 -57.683 1554.75 -57.4989 1554.7 -57.3379L1553.76 -52.6914C1553.71 -52.5074 1553.67 -52.3234 1553.57 -52.1624L1551.18 -47.3779L1550.31 -44.1575C1550.19 -43.7205 1549.94 -43.3525 1549.6 -43.0764L1546.49 -40.5922C1546.33 -40.4542 1546.12 -40.3392 1545.91 -40.2701L1543.43 -39.35C1543.43 -39.35 1543.29 -39.304 1543.22 -39.281L1537.15 -37.6939L1535.98 -34.3355L1536.35 -33.6225L1538.51 -31.7132C1538.99 -31.2992 1539.24 -30.6781 1539.22 -30.034L1538.92 -24.4445C1538.9 -23.8924 1538.65 -23.3634 1538.21 -22.9953L1536.09 -21.1321L1535.52 -19.798V-16.5087C1535.52 -15.5426 1534.87 -14.7145 1533.93 -14.4844L1531.84 -13.9554L1530.69 -13.1273L1530.57 -12.4142L1530.85 -9.90694C1530.87 -9.63091 1530.85 -9.3549 1530.76 -9.10188C1530.76 -9.05587 1530.76 -9.00987 1530.71 -8.96387C1530.62 -8.71084 1530.48 -8.5038 1530.32 -8.29678C1530.32 -8.29678 1530.3 -8.25077 1530.27 -8.22777L1527.95 -5.83554C1527.95 -5.83554 1527.9 -5.83551 1527.9 -5.81251L1527.31 -4.17936L1527.19 -3.85733L1527.72 0.421121L1530.62 9.69109L1540.03 19.3981L1547.3 24.2286C1547.92 24.6427 1548.26 25.3328 1548.22 26.0688L1547.94 31.2674L1548.22 31.7044L1555.87 32.2564C1556.15 32.2564 1556.4 32.3485 1556.66 32.4635L1560.38 34.3267C1561.21 34.7407 1561.67 35.6608 1561.51 36.5809L1560.57 41.5494C1560.54 41.6645 1560.5 41.8025 1560.48 41.9175L1557.44 49.8303L1556.7 53.2116L1559.21 57.4671L1567.17 63.9998L1572.8 64.8509C1573.54 64.9659 1574.14 65.4489 1574.41 66.116L1577.13 72.7637L1579.82 76.9501C1580.14 77.4562 1580.23 78.1003 1580.05 78.6983L1579.02 82.0337L1580.79 86.5882L1582.3 88.2903L1583.64 88.1293L1584.35 86.4502C1584.35 86.4502 1584.44 86.3121 1584.47 86.2431C1584.51 86.1741 1584.54 86.1051 1584.58 86.0591C1584.67 85.9211 1584.79 85.8061 1584.9 85.7141C1584.93 85.6911 1584.95 85.6451 1584.97 85.6221L1588.03 83.2068C1588.24 83.0458 1588.47 82.9308 1588.7 82.8617L1591.55 81.9877C1592.06 81.8267 1592.59 81.8727 1593.05 82.1027L1596.77 83.8509L1600.29 85.116L1600.34 84.4259L1598.87 81.6656C1598.66 81.2746 1598.59 80.8376 1598.64 80.3775L1599.07 77.3182C1599.14 76.7661 1599.44 76.2601 1599.88 75.938L1602.5 73.9598C1602.73 73.7988 1602.98 73.6838 1603.24 73.6148L1606.64 72.7637L1606.46 72.3497C1606.46 72.3497 1606.41 72.2117 1606.39 72.1427L1605.51 69.5204C1605.45 69.2904 1605.4 69.0833 1605.4 68.8533C1605.4 68.7383 1605.42 68.6463 1605.45 68.5313C1605.45 68.4162 1605.45 68.3242 1605.49 68.2092C1605.63 67.7952 1605.88 67.4272 1606.27 67.1511L1607.22 66.484L1608.25 62.8727V58.1112C1608.25 58.1112 1608.25 57.9732 1608.25 57.8812L1608.92 51.7395C1608.96 51.3485 1609.1 50.9804 1609.36 50.6814L1612.28 46.932L1614.58 41.8945C1614.58 41.8945 1614.65 41.7335 1614.69 41.6645L1617.84 36.5579L1617.29 29.8642L1615.18 26.5749C1614.99 26.2989 1614.88 25.9768 1614.85 25.6548L1614.42 21.2613C1614.42 21.1003 1614.42 20.9163 1614.42 20.7552L1615.47 13.5325L1614.83 4.33152L1610.09 -53.0595L1609.45 -53.4735C1609.03 -53.7495 1608.71 -54.1406 1608.57 -54.6236L1607.47 -58.12L1605.88 -62.6975L1603.97 -64.7907C1603.86 -64.9057 1603.77 -65.0437 1603.7 -65.1817L1601.72 -68.6781C1601.56 -68.9541 1601.47 -69.2762 1601.44 -69.6212L1601.24 -74.5897L1590.03 -73.2786L1588.33 -73.1866L1553.02 -70.9554C1553.02 -70.9554 1552.86 -70.9554 1552.79 -70.9554L1549.71 -71.1164H1545.8C1545.8 -71.1164 1546.03 -70.9323 1546.12 -70.8173L1546.17 -70.8633Z" fill="#070D1D"/>
<path d="M1584.24 94.8L1584.95 93.3738L1584.24 92.2467L1582.3 92.4767L1581.71 92.5457C1581.71 92.5457 1581.64 92.5457 1581.59 92.5457C1581.55 92.5457 1581.5 92.5457 1581.43 92.5457C1581.43 92.5457 1581.43 92.5457 1581.41 92.5457C1581.13 92.5457 1580.86 92.4767 1580.6 92.3617C1580.35 92.2467 1580.1 92.0857 1579.91 91.8557L1577.43 89.0724C1577.27 88.8884 1577.13 88.6813 1577.04 88.4513L1574.87 82.8617C1574.71 82.4247 1574.69 81.9416 1574.83 81.4816L1575.77 78.3763L1573.52 74.8569C1573.52 74.8569 1573.38 74.6269 1573.33 74.5119L1570.99 68.7843L1565.97 68.0252C1565.61 67.9792 1565.26 67.8182 1564.96 67.5651L1556.29 60.4344C1556.1 60.2733 1555.94 60.0894 1555.81 59.8823L1552.7 54.6148C1552.42 54.1547 1552.36 53.6257 1552.47 53.1196L1553.41 48.7722C1553.41 48.7722 1553.46 48.5651 1553.51 48.4501L1556.54 40.5603L1557.14 37.34L1555.21 36.3739L1546.95 35.7758C1546.31 35.7298 1545.71 35.3848 1545.36 34.8557L1544.12 32.9925C1543.87 32.6245 1543.75 32.1644 1543.78 31.7274L1544.03 27.0349L1537.57 22.7334C1537.45 22.6414 1537.34 22.5494 1537.22 22.4574L1527.31 12.2213C1527.08 11.9913 1526.91 11.6923 1526.82 11.3933L1523.72 1.47922C1523.67 1.36421 1523.65 1.24919 1523.65 1.11117L1523.03 -3.85736C1523.03 -4.01837 1523.03 -4.2024 1523.03 -4.36341C1523.03 -4.52443 1523.07 -4.68543 1523.14 -4.84644L1523.46 -5.74354L1523.9 -6.96266L1520.5 -10.413C1520.34 -10.574 1520.22 -10.7581 1520.13 -10.9421L1519.21 -12.7593L1510.08 -11.9542L1496.67 -11.3331L1462.23 -10.091H1461.7L1433.41 -9.51593L1433.64 -9.07888C1433.71 -8.96387 1433.73 -8.82586 1433.78 -8.68784C1433.78 -8.64184 1433.82 -8.59584 1433.82 -8.54983C1433.87 -8.34281 1433.87 -8.1358 1433.85 -7.95178L1433.62 -5.58254L1436.63 -0.936041L1436.72 -0.821022L1440.86 4.49253C1440.86 4.49253 1440.93 4.60754 1440.98 4.67655L1444.13 7.48285L1446.54 7.73588C1446.89 7.78188 1447.21 7.89688 1447.49 8.0809L1449.35 9.32305C1449.93 9.71409 1450.27 10.3582 1450.27 11.0482V15.0736C1450.27 15.6717 1450.02 16.2468 1449.56 16.6378L1447.6 18.34L1447.28 19.9501L1449.56 23.7686L1452.69 27.4719L1455.88 29.7952C1456.34 30.1402 1456.67 30.6693 1456.73 31.2443L1458.6 47.047C1458.6 47.047 1458.6 47.231 1458.6 47.323V47.5991L1457.68 95.352L1457.98 101.241V101.425L1458.46 108.716L1488.09 108.141L1519.69 107.221L1562.75 105.358C1563.51 105.358 1564.22 105.703 1564.62 106.347L1567.1 110.373C1567.38 110.833 1567.47 111.362 1567.38 111.868L1566.76 114.973C1566.66 115.433 1566.43 115.847 1566.07 116.146L1562.25 119.413L1562.02 120.402L1567.68 120.816L1572.99 119.781L1575.31 112.995L1575.13 105.726C1575.13 104.921 1575.54 104.185 1576.28 103.817L1578.23 102.828L1578.42 102.621C1578.51 102.506 1578.62 102.391 1578.74 102.299L1581.68 99.9065C1581.68 99.9065 1581.87 99.7685 1581.98 99.6995L1583.78 98.6874L1584.01 95.4671C1584.01 95.191 1584.1 94.938 1584.21 94.685L1584.24 94.8Z" fill="#070D1D"/>
<path d="M1450.04 30.7612C1449.9 30.6692 1449.79 30.5542 1449.67 30.4162L1446.27 26.3908C1446.27 26.3908 1446.13 26.2067 1446.06 26.1147L1443.28 21.4683C1443.14 21.2382 1443.05 21.0082 1443 20.7552C1442.96 20.5021 1442.96 20.2491 1443 19.9961L1443.62 16.8908C1443.72 16.4307 1443.95 16.0397 1444.29 15.7406L1446.06 14.1995V12.2443L1445.56 11.9222L1442.98 11.6692C1442.54 11.6232 1442.13 11.4392 1441.81 11.1632L1438.22 7.96582H1430.79L1370.94 7.34478L1316.01 5.48156L1288.59 4.46948L1283.27 89.4864L1313.71 91.2116L1374.75 93.9949L1437.62 94.6159L1453.54 93.6498L1454.43 47.691V47.53L1452.71 32.7624L1450.04 30.8302V30.7612Z" fill="#070D1D"/>
<path d="M1425.01 -27.2278L1422.97 -32.4723C1422.9 -32.6333 1422.88 -32.7943 1422.85 -32.9554L1421.98 -39.6261L1419.13 -44.2035C1418.99 -44.4336 1418.9 -44.6636 1418.85 -44.9166L1417.63 -51.2653L1413.97 -61.3403C1413.97 -61.3403 1413.9 -61.5244 1413.9 -61.6164L1412.73 -67.1139H1412.36L1412.25 -67.0909C1412.25 -67.0909 1412.25 -67.0909 1412.22 -67.0909H1409.74C1408.91 -67.0909 1408.18 -67.574 1407.83 -68.3331L1406.59 -71.1164C1406.59 -71.1164 1406.52 -71.3004 1406.5 -71.3924L1406.13 -72.7265L1403.05 -74.3827L1396.42 -76.4989C1396.19 -76.5679 1395.99 -76.6829 1395.8 -76.821L1393.96 -78.2011L1391.04 -77.9481L1386.05 -77.35L1380.34 -75.5558C1379.68 -75.3488 1378.96 -75.4868 1378.41 -75.9239L1376.96 -77.097L1370.57 -81.0534C1370.41 -81.1684 1370.25 -81.2834 1370.11 -81.4214L1367.97 -83.7907L1354.37 -83.2156L1321.94 -84.7568L1297.72 -86.298L1270.46 -87.8391L1251.37 -89.1042L1245.89 -33.5764L1289.05 -29.9881C1290.2 -29.8961 1291.05 -28.907 1290.96 -27.7568L1288.96 0.329124L1316.24 1.31821L1371.1 3.1814L1375.63 3.22741L1434.74 3.80247H1434.88L1433.3 1.66327L1433.23 1.57124V1.54825L1432.49 0.398128L1429.73 -3.83431C1429.48 -4.22535 1429.36 -4.7084 1429.41 -5.16845L1429.66 -7.62972L1428.63 -9.53893C1428.21 -9.79196 1427.87 -10.206 1427.71 -10.689L1425.45 -17.9808C1425.41 -18.1418 1425.38 -18.3258 1425.36 -18.4869C1425.36 -18.4869 1425.36 -18.4869 1425.36 -18.5099L1425.06 -27.1358L1425.01 -27.2278Z" fill="#070D1D"/>
<path d="M1833.72 -22.4432L1837.54 -20.534C1837.72 -20.442 1837.88 -20.327 1838.02 -20.212L1840.64 -17.7967C1840.64 -17.7967 1840.78 -17.6587 1840.83 -17.5897L1842.39 -16.1405L1847.38 -13.7483C1847.38 -13.7483 1847.57 -13.6333 1847.66 -13.5643C1847.71 -13.5183 1847.78 -13.4953 1847.82 -13.4493C1847.94 -13.3573 1848.03 -13.2422 1848.12 -13.1042C1848.14 -13.0582 1848.19 -13.0352 1848.21 -13.0122C1848.33 -12.8512 1848.4 -12.6672 1848.47 -12.4832C1848.53 -12.2761 1848.56 -12.0921 1848.56 -11.8621V-9.56185L1854.4 -8.18169C1854.65 -8.13569 1854.88 -8.0207 1855.09 -7.88268L1855.76 -7.44563L1856.01 -7.95169C1856.29 -8.50375 1856.79 -8.89479 1857.37 -9.0328C1857.67 -9.10181 1857.97 -9.1018 1858.26 -9.05579C1858.56 -9.00979 1858.84 -8.87179 1859.09 -8.71077L1862.15 -6.52551C1862.96 -5.95045 1863.26 -4.86937 1862.84 -3.97228L1861 0.12218L1860.61 3.52653C1860.56 3.87156 1860.45 4.19361 1860.27 4.46963L1858.22 7.43693V9.27713L1858.61 10.3122L1864.15 11.7844L1869.7 11.7154C1869.9 11.7154 1870.13 11.7384 1870.36 11.8074L1874.37 13.0725L1875.49 13.2565L1875.65 12.9115L1874.37 11.0483C1874.14 10.7033 1874 10.2892 1874 9.85219V8.40303L1871.42 6.17179C1871.17 5.94177 1870.96 5.66574 1870.85 5.3437L1867.99 -2.10906C1867.83 -2.5001 1867.81 -2.93716 1867.93 -3.35121L1869.6 -10.2749L1869.47 -12.0231L1868.27 -13.2192C1867.49 -14.0013 1867.44 -15.2664 1868.2 -16.0945C1868.8 -16.7616 1869.44 -17.6357 1869.65 -18.0267C1869.72 -19.1078 1870.2 -20.649 1870.41 -21.2701C1870.55 -21.7071 1870.85 -22.0982 1871.24 -22.3512L1873.77 -24.0534L1876.32 -26.1696C1876.8 -26.5836 1877.47 -26.7447 1878.09 -26.6066C1878.71 -26.4686 1879.24 -26.0776 1879.54 -25.5025L1880.21 -24.1914C1880.6 -23.4323 1880.46 -22.4892 1879.89 -21.8682L1878.18 -19.9819L1876.9 -16.2785L1877.82 -16.1176C1878.74 -15.9565 1879.45 -15.1744 1879.52 -14.2543L1880.19 -6.80157C1880.25 -6.04249 1879.89 -5.30641 1879.27 -4.89236C1879.31 -4.84636 1879.38 -4.80034 1879.43 -4.73133L1881.61 -2.3161C1882 -1.87906 1882.19 -1.32698 1882.14 -0.751922C1882.09 -0.176862 1881.82 0.352192 1881.36 0.72023L1879.86 1.91637L1879.59 4.83765L1882.07 8.10398L1885.84 8.56406L1887.48 7.75896C1888.44 7.27591 1889.62 7.59795 1890.17 8.51805L1894.13 14.8437L1895.76 15.2808C1896.68 15.5338 1897.3 16.3618 1897.3 17.3049V22.1355C1897.3 22.4345 1897.23 22.7335 1897.09 23.0096L1894.19 29.2432L1893.6 37.7771L1894.52 39.9393L1896.06 36.581L1897.05 32.1645L1897.25 22.7335C1897.25 22.3655 1897.37 21.9745 1897.58 21.6524L1901.58 15.3268L1904.25 6.47083V1.75533L1898.4 2.90545C1898.4 2.90545 1898.17 2.95147 1898.06 2.95147L1891.27 3.18147C1891.27 3.18147 1891.23 3.18147 1891.2 3.18147C1891.11 3.18147 1891.02 3.15849 1890.95 3.13549C1890.35 3.06648 1889.8 2.74445 1889.48 2.2384C1889.34 2.05438 1889.25 1.82436 1889.2 1.59433L1887.02 -6.96257L1884.19 -20.028L1881.17 -27.5267L1879.7 -31.8052L1870.52 -30.011L1850.35 -26.1696L1846.19 -25.3415L1833.31 -22.7422L1833.77 -22.4202L1833.72 -22.4432Z" fill="#070D1D"/>
<path d="M1125.96 17.2819L1125.75 18.7541L1118.83 70.2795L1118.65 71.4296L1118.37 73.4538L1212.98 84.771L1257.3 87.7613L1266.37 88.6814L1278.93 89.2105L1284.4 2.12335H1284.42V2.10036L1286.59 -26.0546L1243.39 -29.597L1243.36 -29.62L1211.14 -32.3113L1210.22 -32.4033L1159.64 -37.9929L1158.97 -38.0619L1134.19 -41.0292L1130.56 -15.2895L1130.31 -13.1502L1125.96 17.2819Z" fill="#070D1D"/>
<path d="M1893.39 51.3485H1893.25L1885.45 52.8896C1884.63 53.0507 1883.8 52.6826 1883.34 51.9925L1882.9 51.3255C1882.6 50.8654 1882.49 50.2904 1882.6 49.7383C1882.72 49.1863 1883.04 48.7032 1883.52 48.4042L1885.55 47.0931L1885.45 45.8969L1884.26 44.4018L1882.49 43.0216C1881.98 42.6306 1881.68 42.0095 1881.68 41.3654V40.8134L1879.79 39.2492C1879.31 38.8582 1879.04 38.2601 1879.04 37.6391V36.3279C1879.04 35.6608 1879.36 35.0168 1879.91 34.6258C1880.46 34.2347 1881.17 34.1427 1881.8 34.3497L1882.81 34.6948L1882.19 33.6826C1882 33.4066 1881.91 33.0616 1881.89 32.7395L1881.73 30.4393L1880.97 29.6802C1880.53 29.2432 1880.3 28.5991 1880.37 27.9781L1880.92 22.8255L1880.32 22.2275L1876.55 21.4684C1876.18 21.3994 1875.86 21.2383 1875.59 20.9853L1872.62 18.386L1866.32 17.995C1865.88 17.972 1865.46 17.811 1865.12 17.512L1862.91 15.6947L1856.47 13.9696C1855.8 13.7855 1855.27 13.3025 1855.04 12.6584L1854.17 10.2432C1854.08 10.0132 1854.05 9.78314 1854.05 9.53012V6.67781C1854.05 6.26376 1854.19 5.84973 1854.42 5.5047L1856.54 2.42238L1856.91 -0.797977C1856.93 -1.005 1857 -1.21203 1857.07 -1.41905L1857.67 -2.73017C1857.48 -2.61516 1857.3 -2.54615 1857.11 -2.47714C1856.82 -2.40814 1856.52 -2.38512 1856.24 -2.43113C1855.94 -2.47713 1855.67 -2.59214 1855.41 -2.75316L1853.09 -4.29435L1846 -5.95049C1845.06 -6.18052 1844.39 -7.00862 1844.39 -7.97472V-10.528L1842.55 -11.2871L1841.75 -7.46866V-7.42268C1841.75 -7.42268 1841.75 -7.42266 1841.75 -7.39966V-7.33065C1841.75 -7.33065 1841.73 -7.33066 1841.73 -7.30766C1841.66 -7.00863 1841.52 -6.7326 1841.33 -6.47957C1841.33 -6.47957 1841.31 -6.45656 1841.29 -6.43356C1841.1 -6.20354 1840.87 -6.0195 1840.62 -5.88149C1840.62 -5.88149 1840.62 -5.88149 1840.6 -5.88149C1840.39 -5.78948 1840.18 -5.76648 1839.95 -5.74348C1839.86 -5.74348 1839.77 -5.67448 1839.68 -5.67448C1839.36 -5.67448 1839.03 -5.76649 1838.74 -5.9275L1831.17 -10.0219L1827.9 -11.3101L1827.76 -7.03161C1827.76 -6.89359 1827.76 -6.7556 1827.72 -6.61758L1827.05 -3.76527C1827 -3.55825 1826.94 -3.35124 1826.82 -3.16722L1824.7 0.421148L1823.88 2.46836C1823.74 2.8134 1823.51 3.11244 1823.23 3.34246L1819.67 6.17175L1819.16 8.49502C1819.02 9.16209 1818.56 9.71414 1817.96 9.96717C1817.76 10.0592 1817.55 10.1052 1817.32 10.1282L1814.42 10.4042L1814.17 12.8655L1812.6 20.5253C1812.44 21.2613 1811.94 21.8364 1811.27 22.0664C1811.04 22.1584 1810.81 22.1814 1810.56 22.1814H1807.06C1806.67 22.1814 1806.28 22.0664 1805.96 21.8594L1804.21 20.7553C1803.93 20.5712 1803.68 20.3412 1803.52 20.0422L1802.6 18.455L1802.37 21.5374C1802.37 21.6984 1802.32 21.8594 1802.28 22.0204L1799.42 31.0144C1799.42 31.0144 1799.36 31.1754 1799.33 31.2674L1793.01 44.9308L1793.51 45.7359C1793.74 46.1039 1793.86 46.541 1793.83 46.955L1793.6 50.6814C1793.58 51.2105 1793.33 51.7165 1792.94 52.0846L1790.09 54.7068C1789.9 54.8679 1789.69 54.9829 1789.49 55.0749C1789.1 55.2359 1788.66 55.3049 1788.22 55.2129L1787.19 54.9829L1783.58 57.6972C1783.14 58.0192 1782.61 58.1572 1782.1 58.1112C1781.92 58.1112 1781.76 58.0422 1781.6 57.9962L1780.03 57.4211L1778.35 61.8376C1778.1 62.5046 1777.53 62.9877 1776.84 63.1257C1776.84 63.1257 1776.74 63.1257 1776.7 63.1487C1776.12 63.2637 1773.55 63.8388 1772.01 64.1838C1771.55 64.2758 1771.15 64.3679 1770.99 64.4139C1770.56 64.5289 1769.54 64.7819 1767.36 63.3557L1765.33 65.242C1765.08 65.495 1764.76 65.656 1764.41 65.748L1760.9 66.6221C1760.73 66.6681 1760.55 66.6911 1760.39 66.6911C1760.27 66.6911 1760.18 66.6681 1760.07 66.6451C1760 66.6451 1759.93 66.6451 1759.86 66.6221L1755.9 65.518C1755.56 65.426 1755.24 65.2419 1754.98 64.9889L1753.24 63.2407C1753.24 63.2407 1753.07 63.0797 1753.03 62.9877L1751.69 61.1475L1749.32 63.5168C1749.32 63.5168 1749.16 63.7238 1749.07 63.7928L1743.51 68.5083L1737.48 75.616L1735.57 77.5482V79.5264C1735.57 80.2855 1735.16 80.9986 1734.47 81.3666L1729.2 84.2189L1726.53 85.8291L1730.19 85.5071L1746.31 82.9538C1746.31 82.9538 1746.5 82.9308 1746.59 82.9308L1756.62 82.7238L1759.35 80.5385C1759.54 80.4005 1759.75 80.2855 1759.98 80.1935C1760.02 80.1935 1760.04 80.1935 1760.09 80.1935C1760.25 80.1475 1760.44 80.1015 1760.62 80.1015L1763.54 80.0325C1763.54 80.0325 1763.75 80.0095 1763.84 80.0325L1769.64 80.9526L1778.95 79.2734L1800.53 76.6281L1823.71 73.1318L1851.59 68.0252L1877.54 62.8497L1893 58.9163L1893.32 58.8013L1897.07 57.4901L1893.53 51.3715L1893.39 51.3485Z" fill="#070D1D"/>
<path d="M894.993 -9.58492L925.839 36.2819L952.2 75.662L971.913 106.554L973.431 108.509L973.5 108.417L974.259 91.9247L974.558 89.5325L974.719 80.1935C974.719 79.4344 975.156 78.7443 975.823 78.3763L979.573 76.2831C979.895 76.0761 980.286 75.961 980.677 75.961H981.919C982.563 75.961 983.161 76.2601 983.552 76.7431L984.265 77.6402L987.14 78.0083C987.853 78.1003 988.475 78.5603 988.774 79.2044L989.073 79.8715L989.947 81.7807L990.89 81.8266L992.569 79.2504C992.638 79.1354 992.73 79.0204 992.845 78.9054L992.983 78.7673L996.755 55.4659C996.755 55.3049 996.732 55.1669 996.755 55.0059L999.562 41.1124V41.0894L1000.23 37.9611L1003.91 20.4562L1008.39 -1.99415L1011.32 -20.3501L1013.96 -32.5643L1019.07 -60.2362L1025 -89.6103L1016.17 -91.9336H1016.12L990.499 -97.0401L962.022 -103.159L959.676 -103.711L944.011 -107.092L900.651 -117.604L890.208 -77.143L880.754 -41.9263L878.776 -33.9445L895.062 -9.51591L894.993 -9.58492Z" fill="#070D1D"/>
<path d="M1557.6 156.768C1557.83 156.331 1558.2 155.986 1558.66 155.802L1560.98 154.836L1560.71 151.386C1560.64 150.512 1561.12 149.684 1561.9 149.316L1564.16 148.28L1565.21 143.519L1563.49 139.31C1563.4 139.057 1563.33 138.804 1563.33 138.55C1563.33 137.791 1563.7 137.078 1564.39 136.687L1568.94 134.134L1569.24 131.673C1569.24 131.558 1569.29 131.443 1569.31 131.328L1571.36 124.634L1568.04 125.094C1568.04 125.094 1567.86 125.094 1567.77 125.094C1567.72 125.094 1567.67 125.094 1567.61 125.094L1559.23 124.473C1558.63 124.427 1558.06 124.128 1557.71 123.622C1557.35 123.139 1557.23 122.518 1557.37 121.92L1558.29 117.894C1558.38 117.457 1558.63 117.066 1558.96 116.767L1562.75 113.524L1563.07 111.937L1561.67 109.636L1519.81 111.454L1488.16 112.374L1459.1 112.949L1460.69 119.735C1460.74 119.896 1460.74 120.057 1460.74 120.218V131.259L1462.58 146.003C1462.58 146.003 1462.58 146.164 1462.58 146.256L1462.88 196.609L1464.23 197.759L1467.06 196.448C1467.06 196.448 1467.2 196.448 1467.25 196.402C1467.45 196.333 1467.68 196.264 1467.91 196.264C1468.19 196.264 1468.47 196.31 1468.72 196.425L1472.44 197.966C1473.18 198.265 1473.69 198.978 1473.73 199.76V200.174L1474.54 213.032H1502.65L1528.59 211.767H1542.23L1543.22 209.996L1542.76 205.119L1541.06 201.416C1540.79 200.818 1540.81 200.151 1541.11 199.576C1541.2 199.392 1541.34 199.208 1541.48 199.07L1542.12 198.426L1541.2 197.069C1540.88 196.586 1540.76 195.965 1540.9 195.412L1541.52 192.928L1542.72 184.762C1542.76 184.532 1542.83 184.302 1542.95 184.095C1543.06 183.888 1543.2 183.704 1543.38 183.543L1546.42 180.737L1545.91 179.219C1545.71 178.598 1545.8 177.908 1546.19 177.356L1551.16 170.225C1551.41 169.857 1551.78 169.581 1552.22 169.443L1554.52 168.684V167.281L1553.8 165.854C1553.51 165.256 1553.51 164.543 1553.8 163.945L1557.53 156.814L1557.6 156.768Z" fill="#070D1D"/>
</g>
<defs>
<clipPath id="clip0_31_295">
<rect width="1234.22" height="761.725" fill="white" transform="translate(793 -335)"/>
</clipPath>
</defs>
</svg>
