<svg width="192" height="22" viewBox="0 0 192 22" fill="none" xmlns="http://www.w3.org/2000/svg">
<path d="M10.2953 0.890289L12.6068 8.00418H20.0868L14.0353 12.4008L16.3468 19.5147L10.2953 15.1181L4.24389 19.5147L6.55533 12.4008L0.503889 8.00418H7.98388L10.2953 0.890289Z" fill="white"/>
<path d="M44.4665 0.890289L46.7779 8.00418H54.2579L48.2064 12.4008L50.5179 19.5147L44.4665 15.1181L38.415 19.5147L40.7265 12.4008L34.675 8.00418H42.155L44.4665 0.890289Z" fill="white"/>
<path d="M78.6376 0.890289L80.949 8.00418H88.429L82.3776 12.4008L84.689 19.5147L78.6376 15.1181L72.5861 19.5147L74.8976 12.4008L68.8461 8.00418H76.3261L78.6376 0.890289Z" fill="white"/>
<path d="M112.809 0.890289L115.12 8.00418H122.6L116.549 12.4008L118.86 19.5147L112.809 15.1181L106.757 19.5147L109.069 12.4008L103.017 8.00418H110.497L112.809 0.890289Z" fill="white"/>
<path d="M146.98 0.890289L149.291 8.00418H156.771L150.72 12.4008L153.031 19.5147L146.98 15.1181L140.928 19.5147L143.24 12.4008L137.188 8.00418H144.668L146.98 0.890289Z" fill="white"/>
<path d="M181.151 0.890289L183.462 8.00418H190.942L184.891 12.4008L187.202 19.5147L181.151 15.1181L175.1 19.5147L177.411 12.4008L171.36 8.00418H178.84L181.151 0.890289Z" fill="white"/>
</svg>
