<svg xmlns="http://www.w3.org/2000/svg" width="33" height="33" viewBox="0 0 33 33" fill="none"><script xmlns="http://www.w3.org/1999/xhtml" src="chrome-extension://fgddmllnllkalaagkghckoinaemmogpe/scripts/content/gps.js"><script xmlns=""/></script>
<rect x="0.256378" y="0.404785" width="32" height="32" rx="16" fill="black"/>
<path d="M12.2596 16.0965H5.42676L12.6154 12.7225L15.9429 5.47754L15.9507 12.3603C15.9534 14.4227 14.3001 16.0991 12.257 16.0991L12.2596 16.0965Z" fill="white"/>
<path d="M20.2531 16.0965H27.086L19.8974 12.7225L16.5699 5.47754L16.562 12.3603C16.5594 14.4227 18.2127 16.0991 20.2557 16.0991L20.2531 16.0965Z" fill="white"/>
<path d="M12.2596 16.7131H5.42676L12.6154 20.087L15.9429 27.332L15.9507 20.4493C15.9534 18.3868 14.3001 16.7104 12.257 16.7104L12.2596 16.7131Z" fill="white"/>
<path d="M20.2531 16.7131H27.086L19.8974 20.087L16.5699 27.332L16.562 20.4493C16.5594 18.3868 18.2127 16.7104 20.2557 16.7104L20.2531 16.7131Z" fill="white"/>
</svg>