<svg width="10" height="11" viewBox="0 0 10 11" fill="none" xmlns="http://www.w3.org/2000/svg">
<path d="M3.09631 1.29248H7.30334V0.240723H8.3551V1.29248H8.88147C9.45974 1.2927 9.93315 1.76593 9.93323 2.34424V9.70752C9.93305 10.2857 9.45968 10.7591 8.88147 10.7593H1.51819C0.934569 10.7592 0.466611 10.2858 0.466431 9.70752L0.471313 2.34424C0.471389 1.76582 0.934505 1.29252 1.51819 1.29248H2.04456V0.240723H3.09631V1.29248ZM1.51819 9.70752H8.88147V4.44775H1.51819V9.70752ZM3.6217 6.02588H2.56995V4.97412H3.6217V6.02588ZM5.72522 4.97412V6.02588H4.67346V4.97412H5.72522ZM7.82971 6.02588H6.77698V4.97412H7.82971V6.02588ZM1.51819 3.396H8.88147V2.34424H1.51819V3.396Z" fill="white"/>
</svg>
