<svg width="15" height="15" viewBox="0 0 15 15" fill="none" xmlns="http://www.w3.org/2000/svg">
<path d="M2.23071 8.2002V13.0996H7.13013V14.5H2.23071C1.46071 14.5 0.830322 13.8696 0.830322 13.0996V8.2002H2.23071ZM14.8303 13.0996C14.8303 13.8696 14.1999 14.5 13.4299 14.5H8.53052V13.0996H13.4299V8.2002H14.8303V13.0996ZM8.50903 10.7969L9.92993 8.90039L12.0305 11.7002H3.63013L6.42993 8.2002L8.50903 10.7969ZM7.13013 1.90039H2.23071V6.7998H0.830322V1.90039C0.830322 1.13039 1.46071 0.5 2.23071 0.5H7.13013V1.90039ZM13.4299 0.5C14.1999 0.5 14.8303 1.13039 14.8303 1.90039V6.7998H13.4299V1.90039H8.53052V0.5H13.4299ZM10.2805 4C10.8614 4.00011 11.3302 4.46896 11.3303 5.0498C11.3303 5.63074 10.8614 6.0995 10.2805 6.09961C9.69952 6.09961 9.23071 5.6308 9.23071 5.0498C9.23082 4.46889 9.69958 4 10.2805 4Z" fill="white"/>
</svg>
