<svg width="15" height="9" viewBox="0 0 15 9" fill="none" xmlns="http://www.w3.org/2000/svg">
<path d="M14.8364 1.95455C14.8364 2.65455 14.2637 3.22728 13.5637 3.22728C13.4492 3.22728 13.341 3.21455 13.2392 3.18273L10.9737 5.44182C11.0055 5.54364 11.0182 5.65819 11.0182 5.77273C11.0182 6.47273 10.4455 7.04546 9.74552 7.04546C9.04552 7.04546 8.47279 6.47273 8.47279 5.77273C8.47279 5.65819 8.48552 5.54364 8.51733 5.44182L6.89461 3.8191C6.79279 3.85091 6.67824 3.86364 6.5637 3.86364C6.44915 3.86364 6.33461 3.85091 6.23279 3.8191L3.33733 6.72091C3.36915 6.82273 3.38188 6.93091 3.38188 7.04546C3.38188 7.74546 2.80915 8.31819 2.10915 8.31819C1.40915 8.31819 0.836426 7.74546 0.836426 7.04546C0.836426 6.34546 1.40915 5.77273 2.10915 5.77273C2.2237 5.77273 2.33188 5.78546 2.4337 5.81728L5.33552 2.92182C5.3037 2.82001 5.29097 2.70546 5.29097 2.59091C5.29097 1.89091 5.8637 1.31819 6.5637 1.31819C7.2637 1.31819 7.83643 1.89091 7.83643 2.59091C7.83643 2.70546 7.8237 2.82001 7.79188 2.92182L9.41461 4.54455C9.51643 4.51273 9.63097 4.50001 9.74552 4.50001C9.86006 4.50001 9.97461 4.51273 10.0764 4.54455L12.3355 2.2791C12.3037 2.17728 12.291 2.0691 12.291 1.95455C12.291 1.25455 12.8637 0.681824 13.5637 0.681824C14.2637 0.681824 14.8364 1.25455 14.8364 1.95455Z" fill="white"/>
</svg>
