<svg width="84" height="23" viewBox="0 0 84 23" fill="none" xmlns="http://www.w3.org/2000/svg">
<path d="M7.25065 10.843H0.388184L7.60796 7.49063L10.9499 0.29187L10.9578 7.13069C10.9604 9.17997 9.29993 10.8457 7.24802 10.8457L7.25065 10.843Z" fill="#040812"/>
<path d="M15.4004 10.843H22.2629L15.0431 7.49063L11.7012 0.29187L11.6933 7.13069C11.6907 9.17997 13.3511 10.8457 15.403 10.8457L15.4004 10.843Z" fill="#040812"/>
<path d="M15.4004 11.605H22.2629L15.0431 14.9574L11.7012 22.1562L11.6933 15.3173C11.6907 13.2681 13.3511 11.6024 15.403 11.6024L15.4004 11.605Z" fill="#040812"/>
<path d="M7.25065 11.605H0.388184L7.60796 14.9574L10.9499 22.1562L10.9578 15.3173C10.9604 13.2681 9.29993 11.6024 7.24802 11.6024L7.25065 11.605Z" fill="#040812"/>
<path d="M34.217 16.0085V18.2627H26.0225V3.92297H28.3791V16.0085H34.217Z" fill="#040812"/>
<path d="M35.7514 13.5073V3.92297H38.1081V13.3654C38.1081 15.0443 39.0697 16.2344 41.1794 16.2344C43.2891 16.2344 44.2533 15.0469 44.2533 13.3654V3.92297H46.61V13.5099C46.61 16.6022 44.3163 18.528 41.182 18.528C38.0476 18.528 35.754 16.6022 35.754 13.5099L35.7514 13.5073Z" fill="#040812"/>
<path d="M62.9964 18.2601H60.6397V8.03993L56.2758 15.2492H55.9895L51.6255 8.01891V18.2601H49.2689V3.92297H51.8094L56.1313 11.0928L60.4742 3.92297H62.9938V18.2627L62.9964 18.2601Z" fill="#040812"/>
<path d="M68.1431 3.92297V18.2627H65.7864V3.92297H68.1431Z" fill="#040812"/>
<path d="M79.7192 15.3724H73.616L72.6124 18.2598H70.0508L75.2528 3.9201H78.0798L83.2634 18.2598H80.7228L79.7192 15.3724ZM78.9415 13.1603L76.6689 6.68664L74.3963 13.1603H78.9441H78.9415Z" fill="#040812"/>
</svg>
