<svg width="77" height="27" viewBox="0 0 77 27" fill="none" xmlns="http://www.w3.org/2000/svg">
<path d="M29.3641 15.4301V13.6589H33.5364C34.1744 13.6589 34.6722 13.4766 35.0295 13.1119C35.3864 12.7473 35.5652 12.2666 35.5652 11.6722C35.5652 11.0779 35.3864 10.5877 35.0295 10.2326C34.6722 9.87737 34.1744 9.69979 33.5364 9.69979H28.0356V18.3414H26.2349V7.86823H33.5364C34.1367 7.86823 34.6722 7.95702 35.1445 8.1346C35.6156 8.3122 36.0137 8.56202 36.3379 8.88404C36.6622 9.20608 36.9099 9.59677 37.0814 10.0573C37.253 10.5179 37.3387 11.0365 37.3387 11.613C37.3387 12.1896 37.253 12.6952 37.0814 13.1616C36.9099 13.6269 36.6622 14.0283 36.3379 14.3645C36.0137 14.7008 35.6168 14.9624 35.1445 15.1495C34.6736 15.3365 34.1367 15.4301 33.5364 15.4301H29.3641Z" fill="#040812"/>
<path d="M43.2484 18.3391V14.3634L37.7336 7.86829H40.1768L44.221 12.6929L48.2783 7.86829H50.5934L45.0633 14.3634V18.3391H43.2484Z" fill="#040812"/>
<path d="M56.8504 18.3391V9.69747H52.0715V7.86829H63.4508V9.69747H58.6651V18.3391H56.8504Z" fill="#040812"/>
<path d="M74.8041 7.86847H76.6118V18.3393H74.8041V7.86847Z" fill="#040812"/>
<path d="M67.0038 18.3393V13.8071H73.7294V12.1863H67.0038V7.86847H65.196V18.3393H67.0038Z" fill="#040812"/>
<path d="M13.2492 10.6061C13.2492 12.0517 12.0862 13.2238 10.652 13.2238V15.8415C13.5205 15.8415 15.8463 13.4973 15.8463 10.6061C15.8463 7.71496 13.5205 5.37073 10.652 5.37073C9.70643 5.37073 8.81842 5.6253 8.05489 6.07163C6.50203 6.97617 5.45776 8.66802 5.45776 10.6061V23.6947L7.79295 26.0483L8.05489 26.3124V10.6061C8.05489 9.16054 9.21778 7.98843 10.652 7.98843C12.0862 7.98843 13.2492 9.16054 13.2492 10.6061Z" fill="#040812"/>
<path d="M10.6519 0.135742C8.75959 0.135742 6.9859 0.646022 5.45767 1.53753C4.47921 2.10701 3.60293 2.83277 2.86055 3.68166C1.24425 5.52742 0.263428 7.95214 0.263428 10.6066V18.4597L2.86055 21.0774V10.6066C2.86055 8.28129 3.8637 6.19162 5.45767 4.75313C6.2071 4.07829 7.0869 3.5455 8.05482 3.20217C8.86648 2.9109 9.74159 2.75345 10.6519 2.75345C14.9546 2.75345 18.4433 6.26976 18.4433 10.6066C18.4433 14.9433 14.9546 18.4597 10.6519 18.4597V21.0774C16.39 21.0774 21.0404 16.3889 21.0404 10.6066C21.0404 4.82415 16.39 0.135742 10.6519 0.135742Z" fill="#040812"/>
</svg>
